<?xml version="1.0" encoding="iso-8859-1"?>
<!-- Generator: Adobe Illustrator 19.0.0, SVG Export Plug-In . SVG Version: 6.00 Build 0)  -->
<svg version="1.1" id="Capa_1" xmlns="http://www.w3.org/2000/svg" xmlns:xlink="http://www.w3.org/1999/xlink" x="0px" y="0px"
	 viewBox="0 0 480.006 480.006" style="enable-background:new 0 0 480.006 480.006;" xml:space="preserve">
<g>
	<g>
		<g>
			<path d="M469.867,111.718c0.696,0.19,1.414,0.287,2.136,0.288c4.418,0,8-3.582,8-8v-32c0-3.599-2.403-6.755-5.872-7.712l-232-64
				c-1.392-0.392-2.864-0.392-4.256,0l-232,64c-3.469,0.957-5.872,4.113-5.872,7.712v32c-0.001,4.418,3.579,8.001,7.998,8.002
				c0.723,0,1.442-0.097,2.138-0.29l13.864-3.824v356.112h-16c-4.418,0-8,3.582-8,8s3.582,8,8,8h464c4.418,0,8-3.582,8-8
				s-3.582-8-8-8h-16V107.894L469.867,111.718z M408.003,464.006h-336v-96h336V464.006z M408.003,352.006h-336v-96h336V352.006z
				 M408.003,240.006h-336v-88c0-4.418,3.582-8,8-8h320c4.418,0,8,3.582,8,8V240.006z M440.003,464.006h-16v-312
				c0-13.255-10.745-24-24-24h-320c-13.255,0-24,10.745-24,24v312h-16V103.478l200-55.2l200,55.2V464.006z M242.131,32.294
				c-1.392-0.392-2.864-0.392-4.256,0l-221.872,61.2V78.102l224-61.8l224,61.8v15.392L242.131,32.294z"/>
			<path d="M216.003,456.006h48c4.418,0,8-3.582,8-8s-3.582-8-8-8h-48c-4.418,0-8,3.582-8,8S211.585,456.006,216.003,456.006z"/>
		</g>
	</g>
</g>
<g>
</g>
<g>
</g>
<g>
</g>
<g>
</g>
<g>
</g>
<g>
</g>
<g>
</g>
<g>
</g>
<g>
</g>
<g>
</g>
<g>
</g>
<g>
</g>
<g>
</g>
<g>
</g>
<g>
</g>
</svg>
