<?xml version="1.0" encoding="iso-8859-1"?>
<!-- Generator: Adobe Illustrator 19.0.0, SVG Export Plug-In . SVG Version: 6.00 Build 0)  -->
<svg version="1.1" id="Capa_1" xmlns="http://www.w3.org/2000/svg" xmlns:xlink="http://www.w3.org/1999/xlink" x="0px" y="0px"
	 viewBox="0 0 480 480" style="enable-background:new 0 0 480 480;" xml:space="preserve">
<g>
	<g>
		<g>
			<path d="M440,0H40C26.745,0,16,10.745,16,24s10.745,24,24,24v376c0,4.418,3.582,8,8,8h24v40c0,4.418,3.582,8,8,8h24
				c3.032,0.001,5.805-1.712,7.16-4.424L132.944,432h214.112l21.784,43.576c1.355,2.712,4.128,4.425,7.16,4.424h24
				c4.418,0,8-3.582,8-8v-40h24c4.418,0,8-3.582,8-8V48c13.255,0,24-10.745,24-24S453.255,0,440,0z M99.056,464H88v-32h27.056
				L99.056,464z M232,416H56V48h176V416z M392,464h-11.056l-16-32H392V464z M424,416H248V48h176V416z M440,32H40
				c-4.418,0-8-3.582-8-8s3.582-8,8-8h400c4.418,0,8,3.582,8,8S444.418,32,440,32z"/>
			<path d="M208,280c4.418,0,8-3.582,8-8v-64c0-4.418-3.582-8-8-8s-8,3.582-8,8v64C200,276.418,203.582,280,208,280z"/>
			<path d="M272,280c4.418,0,8-3.582,8-8v-64c0-4.418-3.582-8-8-8s-8,3.582-8,8v64C264,276.418,267.582,280,272,280z"/>
		</g>
	</g>
</g>
<g>
</g>
<g>
</g>
<g>
</g>
<g>
</g>
<g>
</g>
<g>
</g>
<g>
</g>
<g>
</g>
<g>
</g>
<g>
</g>
<g>
</g>
<g>
</g>
<g>
</g>
<g>
</g>
<g>
</g>
</svg>
