<?xml version="1.0" encoding="iso-8859-1"?>
<!-- Generator: Adobe Illustrator 19.0.0, SVG Export Plug-In . SVG Version: 6.00 Build 0)  -->
<svg version="1.1" id="Capa_1" xmlns="http://www.w3.org/2000/svg" xmlns:xlink="http://www.w3.org/1999/xlink" x="0px" y="0px"
	 viewBox="0 0 480 480" style="enable-background:new 0 0 480 480;" xml:space="preserve">
<g>
	<g>
		<g>
			<path d="M440,0H40C17.92,0.026,0.026,17.92,0,40v400c0.026,22.08,17.92,39.974,40,40h400c22.08-0.026,39.974-17.92,40-40V40
				C479.974,17.92,462.08,0.026,440,0z M464,440c0,13.255-10.745,24-24,24H40c-13.255,0-24-10.745-24-24V40
				c0-13.255,10.745-24,24-24h400c13.255,0,24,10.745,24,24V440z"/>
			<path d="M240,56C138.38,56,56,138.38,56,240s82.38,184,184,184c101.573-0.115,183.885-82.427,184-184
				C424,138.38,341.62,56,240,56z M240,408c-92.784,0-168-75.216-168-168S147.216,72,240,72c92.742,0.101,167.899,75.258,168,168
				C408,332.784,332.784,408,240,408z"/>
			<path d="M350.352,135.448c-3.078-3.17-8.142-3.245-11.313-0.168s-3.245,8.142-0.168,11.312
				c7.271,7.703,13.615,16.23,18.904,25.408c1.43,2.478,4.075,4.003,6.936,4c1.404,0,2.784-0.37,4-1.072
				c3.826-2.209,5.137-7.102,2.928-10.928c-5.919-10.253-13.012-19.781-21.136-28.392
				C350.454,135.554,350.404,135.5,350.352,135.448z"/>
			<polygon points="364.712,176 364.712,176 364.712,176 			"/>
			<path d="M320.168,128.4v0.024c2.681,0.006,5.187-1.331,6.674-3.562c2.451-3.676,1.458-8.643-2.218-11.094
				C276.544,81.324,214.145,79.233,164,108.384c-3.828,2.209-5.141,7.104-2.932,10.932c2.209,3.828,7.104,5.141,10.932,2.932
				c44.866-26.092,100.703-24.228,143.728,4.8C317.042,127.927,318.587,128.398,320.168,128.4z"/>
			<path d="M168,208c-17.673,0-32,14.327-32,32s14.327,32,32,32s32-14.327,32-32S185.673,208,168,208z M168,256
				c-8.837,0-16-7.163-16-16s7.163-16,16-16s16,7.163,16,16S176.837,256,168,256z"/>
			<path d="M312,208c-17.673,0-32,14.327-32,32s14.327,32,32,32c17.673,0,32-14.327,32-32S329.673,208,312,208z M312,256
				c-8.837,0-16-7.163-16-16s7.163-16,16-16s16,7.163,16,16S320.837,256,312,256z"/>
		</g>
	</g>
</g>
<g>
</g>
<g>
</g>
<g>
</g>
<g>
</g>
<g>
</g>
<g>
</g>
<g>
</g>
<g>
</g>
<g>
</g>
<g>
</g>
<g>
</g>
<g>
</g>
<g>
</g>
<g>
</g>
<g>
</g>
</svg>
