<?xml version="1.0" encoding="iso-8859-1"?>
<!-- Generator: Adobe Illustrator 19.0.0, SVG Export Plug-In . SVG Version: 6.00 Build 0)  -->
<svg version="1.1" id="Capa_1" xmlns="http://www.w3.org/2000/svg" xmlns:xlink="http://www.w3.org/1999/xlink" x="0px" y="0px"
	 viewBox="0 0 480.055 480.055" style="enable-background:new 0 0 480.055 480.055;" xml:space="preserve">
<g>
	<g>
		<g>
			<path d="M476.997,208.273c-3.418-5.164-9.204-8.263-15.397-8.245H432v-16c-0.044-39.746-32.254-71.956-72-72v-37.68
				c0.094-2.467,1.364-4.74,3.416-6.112c7.353-4.163,12.092-11.773,12.584-20.208c0-31.512-80.488-48-160-48s-160,16.488-160,48
				c0.488,8.426,5.218,16.029,12.56,20.192c2.064,1.372,3.343,3.652,3.44,6.128v37.68c-39.746,0.044-71.956,32.254-72,72v264h48v8
				c0,13.255,10.745,24,24,24h16c13.255,0,24-10.745,24-24v-8h208v8c0,13.255,10.745,24,24,24h16c13.255,0,24-10.745,24-24v-8h48
				v-64h24c4.418,0,8-3.582,8-8v-64c0-4.418-3.582-8-8-8h-24v-43.72l39.808-26.536C480.282,228.163,482.606,216.747,476.997,208.273
				z M216,16.028c93.168,0,144,21.144,144,32c0,1.896-2.176,4.568-5.84,7.2c-6.272,4.362-10.055,11.481-10.16,19.12v109.68H88
				V74.348c-0.086-7.671-3.881-14.826-10.184-19.2C74.176,52.596,72,49.924,72,48.028C72,37.172,122.832,16.028,216,16.028z
				 M96,456.028c0,4.418-3.582,8-8,8H72c-4.418,0-8-3.582-8-8v-8h32V456.028z M368,456.028c0,4.418-3.582,8-8,8h-16
				c-4.418,0-8-3.582-8-8v-8h32V456.028z M416,432.028H16v-32h400V432.028z M416,384.028H16v-200c0.035-30.913,25.087-55.965,56-56
				v24H48v16h24v16H32v16h368v-16h-40v-16h24v-16h-24v-24c30.913,0.035,55.965,25.087,56,56V384.028z M448,320.028v48h-16v-48H448z
				 M462.928,220.46L432,241.084v-25.056h29.6c1.325-0.029,2.423,1.022,2.451,2.348C464.07,219.219,463.643,220.011,462.928,220.46z
				"/>
			<path d="M301.781,55.733c0.205,0.05,0.411,0.092,0.619,0.126c6.805,1.372,13.532,3.108,20.152,5.2
				c4.132,1.566,8.75-0.514,10.316-4.646c1.566-4.132-0.514-8.75-4.646-10.316c-0.241-0.091-0.486-0.171-0.734-0.238
				c-7.188-2.285-14.494-4.176-21.888-5.664c-4.291-1.055-8.624,1.569-9.678,5.859S297.49,54.679,301.781,55.733z"/>
			<path d="M107.024,61.444c0.839-0.002,1.673-0.134,2.472-0.392c9.44-3.056,45.024-13.024,106.504-13.024
				c18.374-0.048,36.735,0.929,55,2.928c4.392,0.497,8.355-2.66,8.852-7.052c0.497-4.392-2.66-8.355-7.052-8.852
				c-18.862-2.063-37.825-3.073-56.8-3.024c-62.08,0-98.608,9.656-111.44,13.808c-4.202,1.366-6.501,5.88-5.135,10.082
				C100.496,59.209,103.562,61.439,107.024,61.444z"/>
			<path d="M72,216.028c-13.255,0-24,10.745-24,24s10.745,24,24,24s24-10.745,24-24S85.255,216.028,72,216.028z M72,248.028
				c-4.418,0-8-3.582-8-8s3.582-8,8-8s8,3.582,8,8S76.418,248.028,72,248.028z"/>
			<rect x="112" y="232.028" width="32" height="16"/>
		</g>
	</g>
</g>
<g>
</g>
<g>
</g>
<g>
</g>
<g>
</g>
<g>
</g>
<g>
</g>
<g>
</g>
<g>
</g>
<g>
</g>
<g>
</g>
<g>
</g>
<g>
</g>
<g>
</g>
<g>
</g>
<g>
</g>
</svg>
