<?xml version="1.0" encoding="iso-8859-1"?>
<!-- Generator: Adobe Illustrator 19.0.0, SVG Export Plug-In . SVG Version: 6.00 Build 0)  -->
<svg version="1.1" id="Capa_1" xmlns="http://www.w3.org/2000/svg" xmlns:xlink="http://www.w3.org/1999/xlink" x="0px" y="0px"
	 viewBox="0 0 480 480" style="enable-background:new 0 0 480 480;" xml:space="preserve">
<g>
	<g>
		<g>
			<path d="M472,80H144v-8c0-13.255-10.745-24-24-24H40V20C40,8.954,31.046,0,20,0S0,8.954,0,20v404c0,13.255,10.745,24,24,24h8v24
				c0,4.418,3.582,8,8,8h432c4.418,0,8-3.582,8-8V88C480,83.582,476.418,80,472,80z M24,432c-4.418,0-8-3.582-8-8V20
				c0-2.209,1.791-4,4-4s4,1.791,4,4v68c0,4.418,3.582,8,8,8s8-3.582,8-8V64h80c4.418,0,8,3.582,8,8v352c0,4.418-3.582,8-8,8H24z
				 M464,464H48v-16h72c13.255,0,24-10.745,24-24V96h320V464z"/>
			<path d="M176,192h256c4.418,0,8-3.582,8-8v-64c0-4.418-3.582-8-8-8H176c-4.418,0-8,3.582-8,8v64C168,188.418,171.582,192,176,192
				z M184,128h240v48H184V128z"/>
			<path d="M224,224h-32c-4.418,0-8,3.582-8,8v32c0,4.418,3.582,8,8,8h32c4.418,0,8-3.582,8-8v-32C232,227.582,228.418,224,224,224z
				 M216,256h-16v-16h16V256z"/>
			<path d="M288,224h-32c-4.418,0-8,3.582-8,8v32c0,4.418,3.582,8,8,8h32c4.418,0,8-3.582,8-8v-32C296,227.582,292.418,224,288,224z
				 M280,256h-16v-16h16V256z"/>
			<path d="M352,224h-32c-4.418,0-8,3.582-8,8v32c0,4.418,3.582,8,8,8h32c4.418,0,8-3.582,8-8v-32C360,227.582,356.418,224,352,224z
				 M344,256h-16v-16h16V256z"/>
			<path d="M224,288h-32c-4.418,0-8,3.582-8,8v32c0,4.418,3.582,8,8,8h32c4.418,0,8-3.582,8-8v-32C232,291.582,228.418,288,224,288z
				 M216,320h-16v-16h16V320z"/>
			<path d="M288,288h-32c-4.418,0-8,3.582-8,8v32c0,4.418,3.582,8,8,8h32c4.418,0,8-3.582,8-8v-32C296,291.582,292.418,288,288,288z
				 M280,320h-16v-16h16V320z"/>
			<path d="M352,288h-32c-4.418,0-8,3.582-8,8v32c0,4.418,3.582,8,8,8h32c4.418,0,8-3.582,8-8v-32C360,291.582,356.418,288,352,288z
				 M344,320h-16v-16h16V320z"/>
			<path d="M224,352h-32c-4.418,0-8,3.582-8,8v32c0,4.418,3.582,8,8,8h32c4.418,0,8-3.582,8-8v-32C232,355.582,228.418,352,224,352z
				 M216,384h-16v-16h16V384z"/>
			<path d="M288,352h-32c-4.418,0-8,3.582-8,8v32c0,4.418,3.582,8,8,8h32c4.418,0,8-3.582,8-8v-32C296,355.582,292.418,352,288,352z
				 M280,384h-16v-16h16V384z"/>
			<path d="M352,352h-32c-4.418,0-8,3.582-8,8v32c0,4.418,3.582,8,8,8h32c4.418,0,8-3.582,8-8v-32C360,355.582,356.418,352,352,352z
				 M344,384h-16v-16h16V384z"/>
			<path d="M416,224h-32c-4.418,0-8,3.582-8,8v32c0,4.418,3.582,8,8,8h32c4.418,0,8-3.582,8-8v-32C424,227.582,420.418,224,416,224z
				 M408,256h-16v-16h16V256z"/>
			<path d="M416,288h-32c-4.418,0-8,3.582-8,8v32c0,4.418,3.582,8,8,8h32c4.418,0,8-3.582,8-8v-32C424,291.582,420.418,288,416,288z
				 M408,320h-16v-16h16V320z"/>
			<path d="M416,352h-32c-4.418,0-8,3.582-8,8v32c0,4.418,3.582,8,8,8h32c4.418,0,8-3.582,8-8v-32C424,355.582,420.418,352,416,352z
				 M408,384h-16v-16h16V384z"/>
		</g>
	</g>
</g>
<g>
</g>
<g>
</g>
<g>
</g>
<g>
</g>
<g>
</g>
<g>
</g>
<g>
</g>
<g>
</g>
<g>
</g>
<g>
</g>
<g>
</g>
<g>
</g>
<g>
</g>
<g>
</g>
<g>
</g>
</svg>
