<?xml version="1.0" encoding="iso-8859-1"?>
<!-- Generator: Adobe Illustrator 19.0.0, SVG Export Plug-In . SVG Version: 6.00 Build 0)  -->
<svg version="1.1" id="Capa_1" xmlns="http://www.w3.org/2000/svg" xmlns:xlink="http://www.w3.org/1999/xlink" x="0px" y="0px"
	 viewBox="0 0 480 480" style="enable-background:new 0 0 480 480;" xml:space="preserve">
<g>
	<g>
		<g>
			<path d="M32,176h416c4.418,0,8-3.582,8-8v-48c0-4.418-3.582-8-8-8h-12.152l-61.6-77c-1.519-1.897-3.818-3.001-6.248-3h-72V8
				c0-4.418-3.582-8-8-8h-96c-4.418,0-8,3.582-8,8v24h-72c-2.43-0.001-4.729,1.103-6.248,3l-61.6,77H32c-4.418,0-8,3.582-8,8v48
				C24,172.418,27.582,176,32,176z M200,16h80v16h-80V16z M115.84,48h248.32l51.2,64H64.648L115.84,48z M40,128h400v32H40V128z"/>
			<path d="M472,376h-96.208c5.294-6.883,8.179-15.316,8.208-24v-16h8c4.418,0,8-3.582,8-8s-3.582-8-8-8H264c-4.418,0-8,3.582-8,8
				s3.582,8,8,8h8v16c0.029,8.684,2.914,17.117,8.208,24h-88.416c5.294-6.883,8.179-15.316,8.208-24v-16h8c4.418,0,8-3.582,8-8
				s-3.582-8-8-8H80c-4.418,0-8,3.582-8,8s3.582,8,8,8h8v16c0.029,8.684,2.914,17.117,8.208,24H8c-4.418,0-8,3.582-8,8v32
				c0,4.418,3.582,8,8,8h32v56h16v-56h176v56h16v-56h176v56h16v-56h32c4.418,0,8-3.582,8-8v-32C480,379.582,476.418,376,472,376z
				 M288,336h80v16c0,13.255-10.745,24-24,24h-32c-13.255,0-24-10.745-24-24V336z M104,336h80v16c0,13.255-10.745,24-24,24h-32
				c-13.255,0-24-10.745-24-24V336z M464,408H16v-16h448V408z"/>
			<path d="M112,296c0,4.418,3.582,8,8,8s8-3.582,8-8c0-4.488,1.736-6.4,5.656-10.328c11.958-9.658,13.823-27.181,4.165-39.139
				c-1.237-1.532-2.633-2.928-4.165-4.165c-3.92-3.92-5.656-5.856-5.656-10.368c0-4.512,1.736-6.4,5.656-10.352
				c6.463-5.344,10.247-13.262,10.344-21.648c0-4.418-3.582-8-8-8s-8,3.582-8,8c0,4.496-1.736,6.4-5.656,10.352
				c-11.965,9.671-13.824,27.21-4.153,39.175c1.234,1.527,2.626,2.919,4.153,4.153c3.92,3.92,5.656,5.848,5.656,10.352
				c0,4.504-1.736,6.4-5.656,10.328C115.879,279.699,112.094,287.616,112,296z"/>
			<path d="M176,200c0-4.418-3.582-8-8-8s-8,3.582-8,8c0,4.496-1.736,6.4-5.656,10.352c-11.965,9.671-13.824,27.21-4.153,39.175
				c1.234,1.527,2.626,2.919,4.153,4.153c3.92,3.92,5.656,5.848,5.656,10.352c0,4.504-1.736,6.4-5.656,10.328
				c-6.465,5.339-10.25,13.256-10.344,21.64c0,4.418,3.582,8,8,8s8-3.582,8-8c0-4.488,1.736-6.4,5.656-10.328
				c11.958-9.658,13.823-27.181,4.165-39.139c-1.237-1.532-2.633-2.928-4.165-4.165c-3.92-3.92-5.656-5.856-5.656-10.368
				c0-4.512,1.736-6.4,5.656-10.352C172.119,216.304,175.903,208.386,176,200z"/>
			<path d="M304,296c0,4.418,3.582,8,8,8s8-3.582,8-8c0-4.488,1.736-6.4,5.656-10.328c11.958-9.658,13.823-27.181,4.165-39.139
				c-1.237-1.532-2.633-2.928-4.165-4.165c-3.92-3.92-5.656-5.856-5.656-10.368c0-4.512,1.736-6.4,5.656-10.352
				c6.463-5.344,10.247-13.262,10.344-21.648c0-4.418-3.582-8-8-8s-8,3.582-8,8c0,4.496-1.736,6.4-5.656,10.352
				c-11.965,9.671-13.824,27.21-4.153,39.175c1.234,1.527,2.626,2.919,4.153,4.153c3.92,3.92,5.656,5.848,5.656,10.352
				c0,4.504-1.736,6.4-5.656,10.328C307.879,279.699,304.094,287.616,304,296z"/>
			<path d="M368,200c0-4.418-3.582-8-8-8s-8,3.582-8,8c0,4.496-1.736,6.4-5.656,10.352c-11.965,9.671-13.824,27.21-4.153,39.175
				c1.234,1.527,2.626,2.919,4.153,4.153c3.92,3.92,5.656,5.848,5.656,10.352c0,4.504-1.736,6.4-5.656,10.328
				c-6.465,5.339-10.25,13.256-10.344,21.64c0,4.418,3.582,8,8,8s8-3.582,8-8c0-4.488,1.736-6.4,5.656-10.328
				c11.958-9.658,13.823-27.181,4.165-39.139c-1.237-1.532-2.633-2.928-4.165-4.165c-3.92-3.92-5.656-5.856-5.656-10.368
				c0-4.512,1.736-6.4,5.656-10.352C364.119,216.304,367.903,208.386,368,200z"/>
		</g>
	</g>
</g>
<g>
</g>
<g>
</g>
<g>
</g>
<g>
</g>
<g>
</g>
<g>
</g>
<g>
</g>
<g>
</g>
<g>
</g>
<g>
</g>
<g>
</g>
<g>
</g>
<g>
</g>
<g>
</g>
<g>
</g>
</svg>
