<?xml version="1.0" encoding="iso-8859-1"?>
<!-- Generator: Adobe Illustrator 19.0.0, SVG Export Plug-In . SVG Version: 6.00 Build 0)  -->
<svg version="1.1" id="Capa_1" xmlns="http://www.w3.org/2000/svg" xmlns:xlink="http://www.w3.org/1999/xlink" x="0px" y="0px"
	 viewBox="0 0 480 480" style="enable-background:new 0 0 480 480;" xml:space="preserve">
<g>
	<g>
		<g>
			<path d="M224.024,368c-4.418,0-8,3.582-8,8v32c0,4.418,3.582,8,8,8s8-3.582,8-8v-32C232.024,371.582,228.442,368,224.024,368z"/>
			<path d="M224.024,432c-4.418,0-8,3.582-8,8v32c0,4.418,3.582,8,8,8s8-3.582,8-8v-32C232.024,435.582,228.442,432,224.024,432z"/>
			<path d="M256.024,336c-4.418,0-8,3.582-8,8v80c0,4.418,3.582,8,8,8c4.418,0,8-3.582,8-8v-80
				C264.024,339.582,260.442,336,256.024,336z"/>
			<path d="M256.024,448c-4.418,0-8,3.582-8,8v16c0,4.418,3.582,8,8,8c4.418,0,8-3.582,8-8v-16
				C264.024,451.582,260.442,448,256.024,448z"/>
			<path d="M288.024,304c-4.418,0-8,3.582-8,8v48c0,4.418,3.582,8,8,8s8-3.582,8-8v-48C296.024,307.582,292.442,304,288.024,304z"/>
			<path d="M288.024,384c-4.418,0-8,3.582-8,8v56c0,4.418,3.582,8,8,8s8-3.582,8-8v-56C296.024,387.582,292.442,384,288.024,384z"/>
			<path d="M192.024,352c-4.418,0-8,3.582-8,8v48c0,4.418,3.582,8,8,8s8-3.582,8-8v-48C200.024,355.582,196.442,352,192.024,352z"/>
			<path d="M192.024,432c-4.418,0-8,3.582-8,8v8c0,4.418,3.582,8,8,8s8-3.582,8-8v-8C200.024,435.582,196.442,432,192.024,432z"/>
			<path d="M320.024,336c-4.418,0-8,3.582-8,8v32c0,4.418,3.582,8,8,8s8-3.582,8-8v-32C328.024,339.582,324.442,336,320.024,336z"/>
			<path d="M320.024,400c-4.418,0-8,3.582-8,8v16c0,4.418,3.582,8,8,8s8-3.582,8-8v-16C328.024,403.582,324.442,400,320.024,400z"/>
			<path d="M160.024,312c-4.418,0-8,3.582-8,8v40c0,4.418,3.582,8,8,8s8-3.582,8-8v-40C168.024,315.582,164.442,312,160.024,312z"/>
			<path d="M160.024,384c-4.418,0-8,3.582-8,8v32c0,4.418,3.582,8,8,8s8-3.582,8-8v-32C168.024,387.582,164.442,384,160.024,384z"/>
			<path d="M224.024,320c-4.418,0-8,3.582-8,8v16c0,4.418,3.582,8,8,8s8-3.582,8-8v-16C232.024,323.582,228.442,320,224.024,320z"/>
			<path d="M366.992,193.152c-5.291-46.407-35.615-86.171-78.968-103.552V64c0-4.418-3.582-8-8-8h-16V0h-16v56h-16V0h-16v56h-16
				c-4.418,0-8,3.582-8,8v25.44c-43.379,17.454-73.71,57.271-79.016,103.728c-12.65,3.824-19.804,17.179-15.98,29.829
				c3.062,10.129,12.414,17.044,22.996,17.003h21.84c3.265,2.522,6.745,4.751,10.4,6.664c-0.12,0.437-0.2,0.884-0.24,1.336v40
				c0,4.418,3.582,8,8,8s8-3.582,8-8v-34.608c5.253,1.789,10.593,3.311,16,4.56V328c0,4.418,3.582,8,8,8s8-3.582,8-8v-66.944
				c5.144,0.8,10.448,1.432,15.912,1.912L216.024,296c0,4.418,3.582,8,8,8s8-3.582,8-8l-0.088-32.088
				c2.672,0.059,5.368,0.088,8.088,0.088s5.355-0.037,7.904-0.112L248.024,312c0,4.418,3.582,8,8,8c4.418,0,8-3.582,8-8l-0.096-49
				c5.528-0.48,10.896-1.136,16.096-1.928V280c0,4.418,3.582,8,8,8s8-3.582,8-8v-22.048c5.407-1.249,10.747-2.771,16-4.56V312
				c0,4.418,3.582,8,8,8s8-3.582,8-8v-64c-0.05-0.453-0.142-0.9-0.272-1.336c3.666-1.911,7.157-4.141,10.432-6.664h21.84
				c13.219,0.023,23.955-10.675,23.978-23.894C384.02,205.539,377.107,196.21,366.992,193.152z M208.024,72h64v16h-64V72z
				 M198.736,103.896c0.426,0.071,0.856,0.106,1.288,0.104h80c0.429,0.002,0.857-0.033,1.28-0.104
				c37.24,14.842,63.728,48.43,69.48,88.104H129.232C134.852,152.262,161.398,118.612,198.736,103.896z M240.024,248
				c-20.652,0.249-41.235-2.445-61.128-8h122.256C281.259,245.555,260.676,248.249,240.024,248z M360.024,224h-240
				c-4.418,0-8-3.582-8-8s3.582-8,8-8h240c4.418,0,8,3.582,8,8S364.442,224,360.024,224z"/>
		</g>
	</g>
</g>
<g>
</g>
<g>
</g>
<g>
</g>
<g>
</g>
<g>
</g>
<g>
</g>
<g>
</g>
<g>
</g>
<g>
</g>
<g>
</g>
<g>
</g>
<g>
</g>
<g>
</g>
<g>
</g>
<g>
</g>
</svg>
