<?xml version="1.0" encoding="iso-8859-1"?>
<!-- Generator: Adobe Illustrator 19.0.0, SVG Export Plug-In . SVG Version: 6.00 Build 0)  -->
<svg version="1.1" id="Capa_1" xmlns="http://www.w3.org/2000/svg" xmlns:xlink="http://www.w3.org/1999/xlink" x="0px" y="0px"
	 viewBox="0 0 480 480" style="enable-background:new 0 0 480 480;" xml:space="preserve">
<g>
	<g>
		<g>
			<path d="M472,40H8c-4.418,0-8,3.582-8,8v352c0,4.418,3.582,8,8,8h32v8c0,13.255,10.745,24,24,24h16c13.255,0,24-10.745,24-24v-8
				h272v8c0,13.255,10.745,24,24,24h16c13.255,0,24-10.745,24-24v-8h32c4.418,0,8-3.582,8-8V48C480,43.582,476.418,40,472,40z
				 M88,416c0,4.418-3.582,8-8,8H64c-4.418,0-8-3.582-8-8v-8h32V416z M424,416c0,4.418-3.582,8-8,8h-16c-4.418,0-8-3.582-8-8v-8h32
				V416z M464,232h-16.8c-4.396-21.65-25.51-35.636-47.16-31.24c-15.741,3.196-28.044,15.499-31.24,31.24H352V80
				c0-4.418-3.582-8-8-8H40c-4.418,0-8,3.582-8,8v272c0,4.418,3.582,8,8,8h304c4.418,0,8-3.582,8-8V248h16.8
				c4.396,21.65,25.51,35.636,47.16,31.24c15.741-3.196,28.044-15.499,31.24-31.24H464v144H16V56h448V232z M432,240
				c0,13.255-10.745,24-24,24s-24-10.745-24-24s10.745-24,24-24S432,226.745,432,240z M336,88v256H48V88H336z"/>
			<rect x="384" y="88" width="48" height="16"/>
			<rect x="384" y="120" width="48" height="16"/>
			<rect x="384" y="152" width="48" height="16"/>
			<path d="M80,168c8.524-0.211,16.905,2.214,24,6.944c9.507,6.137,20.631,9.291,31.944,9.056c11.331,0.242,22.476-2.912,32-9.056
				c14.69-9.258,33.39-9.258,48.08,0c19.621,12.088,44.379,12.088,64,0c7.093-4.714,15.462-7.138,23.976-6.944c4.418,0,8-3.582,8-8
				s-3.582-8-8-8c-11.331-0.238-22.474,2.915-32,9.056c-14.695,9.259-33.401,9.259-48.096,0c-9.524-6.144-20.669-9.298-32-9.056
				c-11.331-0.242-22.476,2.912-32,9.056c-7.096,4.726-15.477,7.15-24,6.944c-8.524,0.207-16.904-2.217-24-6.944
				C102.41,154.925,91.3,151.771,80,152c-4.418,0-8,3.582-8,8S75.582,168,80,168z"/>
			<path d="M80,216c8.524-0.211,16.905,2.214,24,6.944c9.507,6.137,20.631,9.291,31.944,9.056c11.331,0.242,22.476-2.912,32-9.056
				c14.69-9.258,33.39-9.258,48.08,0c19.621,12.088,44.379,12.088,64,0c7.093-4.714,15.462-7.138,23.976-6.944c4.418,0,8-3.582,8-8
				s-3.582-8-8-8c-11.331-0.238-22.474,2.915-32,9.056c-14.695,9.259-33.401,9.259-48.096,0c-9.524-6.144-20.669-9.298-32-9.056
				c-11.331-0.242-22.476,2.912-32,9.056c-7.096,4.726-15.477,7.15-24,6.944c-8.524,0.207-16.904-2.217-24-6.944
				C102.41,202.925,91.3,199.771,80,200c-4.418,0-8,3.582-8,8S75.582,216,80,216z"/>
			<path d="M80,264c8.524-0.211,16.905,2.214,24,6.944c9.507,6.137,20.631,9.291,31.944,9.056c11.331,0.242,22.476-2.912,32-9.056
				c14.69-9.258,33.39-9.258,48.08,0c19.621,12.088,44.379,12.088,64,0c7.093-4.714,15.462-7.138,23.976-6.944c4.418,0,8-3.582,8-8
				s-3.582-8-8-8c-11.331-0.238-22.474,2.915-32,9.056c-14.695,9.259-33.401,9.259-48.096,0c-9.524-6.144-20.669-9.298-32-9.056
				c-11.331-0.242-22.476,2.912-32,9.056c-7.096,4.726-15.477,7.15-24,6.944c-8.524,0.207-16.904-2.217-24-6.944
				C102.41,250.925,91.3,247.771,80,248c-4.418,0-8,3.582-8,8S75.582,264,80,264z"/>
			<path d="M408,344c13.255,0,24-10.745,24-24s-10.745-24-24-24s-24,10.745-24,24S394.745,344,408,344z M408,312
				c4.418,0,8,3.582,8,8s-3.582,8-8,8s-8-3.582-8-8S403.582,312,408,312z"/>
		</g>
	</g>
</g>
<g>
</g>
<g>
</g>
<g>
</g>
<g>
</g>
<g>
</g>
<g>
</g>
<g>
</g>
<g>
</g>
<g>
</g>
<g>
</g>
<g>
</g>
<g>
</g>
<g>
</g>
<g>
</g>
<g>
</g>
</svg>
