<?xml version="1.0" encoding="iso-8859-1"?>
<!-- Generator: Adobe Illustrator 19.0.0, SVG Export Plug-In . SVG Version: 6.00 Build 0)  -->
<svg version="1.1" id="Capa_1" xmlns="http://www.w3.org/2000/svg" xmlns:xlink="http://www.w3.org/1999/xlink" x="0px" y="0px"
	 viewBox="0 0 480 480" style="enable-background:new 0 0 480 480;" xml:space="preserve">
<g>
	<g>
		<path d="M374.065,192.208L323.041,17.28C320.02,7.064,310.654,0.04,300.001,0h-120c-10.653,0.04-20.019,7.064-23.04,17.28
			l-51.024,174.928c-15.389,1.039-27.023,14.356-25.984,29.745c0.994,14.731,13.283,26.144,28.048,26.047h86.456l-35.664,64.752
			c-21.39,38.549-16.001,86.419,13.424,119.248h-12.216c-13.255,0-24,10.745-24,24s10.745,24,24,24h160c13.255,0,24-10.745,24-24
			s-10.745-24-24-24h-12.152c29.274-32.743,34.636-80.42,13.368-118.848L285.505,248h86.496
			c15.424,0.101,28.009-12.32,28.111-27.744C400.208,205.491,388.796,193.202,374.065,192.208z M172.321,21.76
			c1.009-3.404,4.13-5.744,7.68-5.76h120c3.55,0.016,6.671,2.356,7.68,5.76L357.337,192H122.665L172.321,21.76z M320.001,448
			c4.418,0,8,3.582,8,8s-3.582,8-8,8h-160c-4.418,0-8-3.582-8-8s3.582-8,8-8H320.001z M307.201,320.8
			c19.963,36.046,12.077,81.134-18.936,108.264L284.977,432h-89.904l-4.112-3.712c-30.48-27.293-38.017-72.045-18.16-107.816
			L212.729,248h54.536L307.201,320.8z M372.001,232h-264c-6.627,0-12-5.373-12-12c0-6.627,5.373-12,12-12h264
			c6.627,0,12,5.373,12,12C384.001,226.627,378.628,232,372.001,232z"/>
	</g>
</g>
<g>
</g>
<g>
</g>
<g>
</g>
<g>
</g>
<g>
</g>
<g>
</g>
<g>
</g>
<g>
</g>
<g>
</g>
<g>
</g>
<g>
</g>
<g>
</g>
<g>
</g>
<g>
</g>
<g>
</g>
</svg>
