<?xml version="1.0" encoding="iso-8859-1"?>
<!-- Generator: Adobe Illustrator 19.0.0, SVG Export Plug-In . SVG Version: 6.00 Build 0)  -->
<svg version="1.1" id="Capa_1" xmlns="http://www.w3.org/2000/svg" xmlns:xlink="http://www.w3.org/1999/xlink" x="0px" y="0px"
	 viewBox="0 0 480 480" style="enable-background:new 0 0 480 480;" xml:space="preserve">
<g>
	<g>
		<g>
			<path d="M456,160h-16v-48h16c4.418,0,8-3.582,8-8V88c0-13.255-10.745-24-24-24h-44.688l-24.968-24.968
				c-4.491-4.52-10.605-7.052-16.976-7.032H280v-8c0-13.255-10.745-24-24-24h-32c-13.255,0-24,10.745-24,24v8h-73.368
				c-6.371-0.02-12.485,2.512-16.976,7.032L84.688,64H56c-13.255,0-24,10.745-24,24v16c0,4.418,3.582,8,8,8v48H24
				c-13.255,0-24,10.745-24,24v11.416c-0.002,4.499,1.266,8.908,3.656,12.72L40,266.296V440c0.026,22.08,17.92,39.974,40,40h320
				c22.08-0.026,39.974-17.92,40-40V266.296l36.344-58.16c2.39-3.812,3.658-8.221,3.656-12.72V184C480,170.745,469.255,160,456,160z
				 M40,236.104l-22.784-36.456c-0.796-1.268-1.218-2.735-1.216-4.232V184c0-4.418,3.582-8,8-8h16V236.104z M216,24
				c0-4.418,3.582-8,8-8h32c4.418,0,8,3.582,8,8v8h-48V24z M120.968,50.344c1.502-1.502,3.54-2.346,5.664-2.344h226.736
				c2.124-0.002,4.162,0.842,5.664,2.344L372.688,64H107.312L120.968,50.344z M424,400h-40c-4.418,0-8,3.582-8,8s3.582,8,8,8h40v24
				c0,13.255-10.745,24-24,24H80c-13.255,0-24-10.745-24-24v-24h296c4.418,0,8-3.582,8-8s-3.582-8-8-8h-64V288
				c0-13.255-10.745-24-24-24h-48c-13.255,0-24,10.745-24,24v112H56V112h368V400z M208,400V288c0-4.418,3.582-8,8-8h48
				c4.418,0,8,3.582,8,8v112H208z M48,96v-8c0-4.418,3.582-8,8-8h384c4.418,0,8,3.582,8,8v8H48z M464,195.416
				c0.002,1.497-0.42,2.964-1.216,4.232L440,236.104V176h16c4.418,0,8,3.582,8,8V195.416z"/>
			<path d="M240,288c-13.255,0-24,10.745-24,24s10.745,24,24,24s24-10.745,24-24S253.255,288,240,288z M240,320
				c-4.418,0-8-3.582-8-8s3.582-8,8-8s8,3.582,8,8S244.418,320,240,320z"/>
			<path d="M240,344c-13.255,0-24,10.745-24,24s10.745,24,24,24s24-10.745,24-24S253.255,344,240,344z M240,376
				c-4.418,0-8-3.582-8-8s3.582-8,8-8s8,3.582,8,8S244.418,376,240,376z"/>
		</g>
	</g>
</g>
<g>
</g>
<g>
</g>
<g>
</g>
<g>
</g>
<g>
</g>
<g>
</g>
<g>
</g>
<g>
</g>
<g>
</g>
<g>
</g>
<g>
</g>
<g>
</g>
<g>
</g>
<g>
</g>
<g>
</g>
</svg>
