<?xml version="1.0" encoding="iso-8859-1"?>
<!-- Generator: Adobe Illustrator 19.0.0, SVG Export Plug-In . SVG Version: 6.00 Build 0)  -->
<svg version="1.1" id="Capa_1" xmlns="http://www.w3.org/2000/svg" xmlns:xlink="http://www.w3.org/1999/xlink" x="0px" y="0px"
	 viewBox="0 0 480.004 480.004" style="enable-background:new 0 0 480.004 480.004;" xml:space="preserve">
<g>
	<g>
		<path d="M360.002,288.004L360.002,288.004h-32v-232c0.03-30.897-24.992-55.969-55.889-55.999
			c-11.486-0.011-22.697,3.513-32.111,10.095C214.68-7.604,179.801-1.429,162.097,23.893c-6.582,9.414-10.106,20.625-10.095,32.111
			v232h-32c-13.255,0-24,10.745-24,24v16c0.042,10.134,6.445,19.15,16,22.528v9.472c0,13.255,10.745,24,24,24s24-10.745,24-24v-8h8
			v56c0.049,3.452,0.547,6.884,1.48,10.208c0.093,0.404,0.218,0.8,0.376,1.184c4.998,16.916,20.505,28.546,38.144,28.608v24
			c0,4.418,3.582,8,8,8h48c4.418,0,8-3.582,8-8v-24c17.639-0.062,33.146-11.692,38.144-28.608c0.159-0.386,0.285-0.785,0.376-1.192
			c0.933-3.322,1.431-6.75,1.48-10.2v-56h8v8c0,13.255,10.745,24,24,24s24-10.745,24-24v-9.472c9.555-3.378,15.958-12.394,16-22.528
			v-16C384.002,298.749,373.257,288.004,360.002,288.004z M168.002,56.004c0.026-22.08,17.92-39.974,40-40
			c9.84-0.013,19.332,3.64,26.624,10.248c3.05,2.767,7.702,2.767,10.752,0c16.487-14.704,41.772-13.259,56.476,3.228
			c6.513,7.302,10.123,16.739,10.148,26.524v232h-16v-232c0-13.255-10.745-24-24-24c-13.224,0.074-23.926,10.776-24,24v232h-16v-232
			c0-13.255-10.745-24-24-24c-13.224,0.074-23.926,10.776-24,24v232h-16V56.004z M280.002,56.004v232h-16v-232
			c-0.004-2.157,0.885-4.219,2.456-5.696c1.455-1.495,3.458-2.328,5.544-2.304C276.42,48.004,280.002,51.585,280.002,56.004z
			 M216.002,56.004v232h-16v-232c-0.004-2.157,0.885-4.219,2.456-5.696c1.455-1.495,3.458-2.328,5.544-2.304
			C212.42,48.004,216.002,51.585,216.002,56.004z M144.002,360.004c0,4.418-3.582,8-8,8s-8-3.582-8-8v-8h16V360.004z
			 M256.002,464.004h-32v-16h32V464.004z M296.002,360.004h-16c-4.418,0-8,3.582-8,8s3.582,8,8,8h16v8h-16c-4.418,0-8,3.582-8,8
			s3.582,8,8,8h16v8h-16c-4.418,0-8,3.582-8,8s3.582,8,8,8h9.76c-4.514,5.07-10.972,7.979-17.76,8h-64
			c-6.788-0.021-13.246-2.93-17.76-8h65.76c4.418,0,8-3.582,8-8s-3.582-8-8-8h-72v-8h72c4.418,0,8-3.582,8-8s-3.582-8-8-8h-72v-8h72
			c4.418,0,8-3.582,8-8s-3.582-8-8-8h-72v-8h112V360.004z M352.002,360.004c0,4.418-3.582,8-8,8s-8-3.582-8-8v-8h16V360.004z
			 M368.002,328.004c0,4.418-3.582,8-8,8h-240c-4.418,0-8-3.582-8-8v-16c0-4.418,3.582-8,8-8h240c4.418,0,8,3.582,8,8V328.004z"/>
	</g>
</g>
<g>
</g>
<g>
</g>
<g>
</g>
<g>
</g>
<g>
</g>
<g>
</g>
<g>
</g>
<g>
</g>
<g>
</g>
<g>
</g>
<g>
</g>
<g>
</g>
<g>
</g>
<g>
</g>
<g>
</g>
</svg>
