<?xml version="1.0" encoding="iso-8859-1"?>
<!-- Generator: Adobe Illustrator 19.0.0, SVG Export Plug-In . SVG Version: 6.00 Build 0)  -->
<svg version="1.1" id="Capa_1" xmlns="http://www.w3.org/2000/svg" xmlns:xlink="http://www.w3.org/1999/xlink" x="0px" y="0px"
	 viewBox="0 0 480 480" style="enable-background:new 0 0 480 480;" xml:space="preserve">
<g>
	<g>
		<g>
			<path d="M472,80h-48V8c-0.04-0.27-0.096-0.537-0.168-0.8c-0.096-1.077-0.426-2.12-0.968-3.056c-0.1-0.274-0.218-0.541-0.352-0.8
				c-0.128-0.184-0.328-0.28-0.472-0.448c-0.357-0.406-0.754-0.776-1.184-1.104c-0.383-0.307-0.796-0.575-1.232-0.8
				c-0.449-0.225-0.921-0.402-1.408-0.528c-0.52-0.163-1.057-0.267-1.6-0.312C416.414,0.09,416.208,0.04,416,0
				c-0.289,0.039-0.575,0.097-0.856,0.176c-0.518,0.05-1.03,0.152-1.528,0.304c-0.521,0.167-1.023,0.389-1.496,0.664
				c-0.273,0.099-0.54,0.214-0.8,0.344l-17.72,12.68l-17.84-12.68c-2.779-1.981-6.509-1.981-9.288,0l-17.752,12.68L330.968,1.496
				c-2.781-1.985-6.515-1.985-9.296,0L303.92,14.168L286.208,1.496c-2.782-1.989-6.522-1.989-9.304,0L259.2,14.168L241.408,1.496
				c-2.781-1.985-6.515-1.985-9.296,0L214.4,14.168L196.656,1.496c-0.258-0.134-0.525-0.249-0.8-0.344
				c-0.462-0.271-0.95-0.496-1.456-0.672c-0.503-0.155-1.02-0.26-1.544-0.312C192.574,0.095,192.289,0.039,192,0
				c-0.232,0-0.424,0.112-0.648,0.128c-0.543,0.052-1.079,0.16-1.6,0.32c-0.972,0.231-1.875,0.692-2.632,1.344
				c-0.437,0.328-0.84,0.701-1.2,1.112c-0.144,0.168-0.336,0.256-0.464,0.44c-0.134,0.259-0.252,0.526-0.352,0.8
				c-0.549,0.933-0.883,1.977-0.976,3.056c-0.057,0.264-0.1,0.531-0.128,0.8v72h-40v-8c0-13.255-10.745-24-24-24H40V20
				C40,8.954,31.046,0,20,0C8.954,0,0,8.954,0,20v404c0,13.255,10.745,24,24,24h8v24c0,4.418,3.582,8,8,8h432c4.418,0,8-3.582,8-8
				V88C480,83.582,476.418,80,472,80z M200,23.56l9.72,6.944c2.782,1.989,6.522,1.989,9.304,0v0L236.8,17.832l17.744,12.672
				c2.782,1.989,6.522,1.989,9.304,0l17.744-12.672l17.712,12.672c2.782,1.989,6.521,1.989,9.304,0l17.712-12.672l17.752,12.672
				c2.781,1.985,6.515,1.985,9.296,0l17.76-12.672l17.792,12.68c2.779,1.981,6.509,1.981,9.288,0L408,23.536V176H200V23.56z M24,432
				c-4.418,0-8-3.582-8-8V20c0-2.209,1.791-4,4-4s4,1.791,4,4v68c0,4.418,3.582,8,8,8s8-3.582,8-8V64h80c4.418,0,8,3.582,8,8v352
				c0,4.418-3.582,8-8,8H24z M464,464H48v-16h72c13.255,0,24-10.745,24-24V96h40v80h-16v16h272v-16h-16V96h40V464z"/>
			<path d="M224,224h-32c-4.418,0-8,3.582-8,8v32c0,4.418,3.582,8,8,8h32c4.418,0,8-3.582,8-8v-32C232,227.582,228.418,224,224,224z
				 M216,256h-16v-16h16V256z"/>
			<path d="M288,224h-32c-4.418,0-8,3.582-8,8v32c0,4.418,3.582,8,8,8h32c4.418,0,8-3.582,8-8v-32C296,227.582,292.418,224,288,224z
				 M280,256h-16v-16h16V256z"/>
			<path d="M352,224h-32c-4.418,0-8,3.582-8,8v32c0,4.418,3.582,8,8,8h32c4.418,0,8-3.582,8-8v-32C360,227.582,356.418,224,352,224z
				 M344,256h-16v-16h16V256z"/>
			<path d="M224,288h-32c-4.418,0-8,3.582-8,8v32c0,4.418,3.582,8,8,8h32c4.418,0,8-3.582,8-8v-32C232,291.582,228.418,288,224,288z
				 M216,320h-16v-16h16V320z"/>
			<path d="M288,288h-32c-4.418,0-8,3.582-8,8v32c0,4.418,3.582,8,8,8h32c4.418,0,8-3.582,8-8v-32C296,291.582,292.418,288,288,288z
				 M280,320h-16v-16h16V320z"/>
			<path d="M352,288h-32c-4.418,0-8,3.582-8,8v32c0,4.418,3.582,8,8,8h32c4.418,0,8-3.582,8-8v-32C360,291.582,356.418,288,352,288z
				 M344,320h-16v-16h16V320z"/>
			<path d="M224,352h-32c-4.418,0-8,3.582-8,8v32c0,4.418,3.582,8,8,8h32c4.418,0,8-3.582,8-8v-32C232,355.582,228.418,352,224,352z
				 M216,384h-16v-16h16V384z"/>
			<path d="M288,352h-32c-4.418,0-8,3.582-8,8v32c0,4.418,3.582,8,8,8h32c4.418,0,8-3.582,8-8v-32C296,355.582,292.418,352,288,352z
				 M280,384h-16v-16h16V384z"/>
			<path d="M352,352h-32c-4.418,0-8,3.582-8,8v32c0,4.418,3.582,8,8,8h32c4.418,0,8-3.582,8-8v-32C360,355.582,356.418,352,352,352z
				 M344,384h-16v-16h16V384z"/>
			<path d="M416,224h-32c-4.418,0-8,3.582-8,8v32c0,4.418,3.582,8,8,8h32c4.418,0,8-3.582,8-8v-32C424,227.582,420.418,224,416,224z
				 M408,256h-16v-16h16V256z"/>
			<path d="M416,288h-32c-4.418,0-8,3.582-8,8v32c0,4.418,3.582,8,8,8h32c4.418,0,8-3.582,8-8v-32C424,291.582,420.418,288,416,288z
				 M408,320h-16v-16h16V320z"/>
			<path d="M416,352h-32c-4.418,0-8,3.582-8,8v32c0,4.418,3.582,8,8,8h32c4.418,0,8-3.582,8-8v-32C424,355.582,420.418,352,416,352z
				 M408,384h-16v-16h16V384z"/>
			<rect x="216" y="48" width="16" height="16"/>
			<rect x="248" y="48" width="16" height="16"/>
			<rect x="280" y="48" width="16" height="16"/>
			<rect x="312" y="48" width="16" height="16"/>
			<rect x="344" y="48" width="16" height="16"/>
			<rect x="376" y="48" width="16" height="16"/>
			<rect x="216" y="144" width="16" height="16"/>
			<rect x="248" y="144" width="16" height="16"/>
			<rect x="280" y="144" width="16" height="16"/>
			<rect x="312" y="144" width="16" height="16"/>
			<rect x="344" y="144" width="16" height="16"/>
			<rect x="376" y="144" width="16" height="16"/>
			<rect x="216" y="80" width="176" height="16"/>
			<rect x="216" y="112" width="112" height="16"/>
		</g>
	</g>
</g>
<g>
</g>
<g>
</g>
<g>
</g>
<g>
</g>
<g>
</g>
<g>
</g>
<g>
</g>
<g>
</g>
<g>
</g>
<g>
</g>
<g>
</g>
<g>
</g>
<g>
</g>
<g>
</g>
<g>
</g>
</svg>
