<?xml version="1.0" encoding="iso-8859-1"?>
<!-- Generator: Adobe Illustrator 19.0.0, SVG Export Plug-In . SVG Version: 6.00 Build 0)  -->
<svg version="1.1" id="Capa_1" xmlns="http://www.w3.org/2000/svg" xmlns:xlink="http://www.w3.org/1999/xlink" x="0px" y="0px"
	 viewBox="0 0 480 480" style="enable-background:new 0 0 480 480;" xml:space="preserve">
<g>
	<g>
		<g>
			<path d="M440,202.012v-98.4c-0.048-39.744-32.256-71.952-72-72h-55.112c-4.045-18.264-20.261-31.248-38.968-31.2
				c-10.618-0.006-20.804,4.203-28.32,11.704l-5.6,5.6l-5.664-5.664c-15.643-15.568-40.931-15.55-56.552,0.04
				c-5.356,5.351-9.065,12.125-10.688,19.52H112c-39.744,0.048-71.952,32.256-72,72v98.4c-23.696,7.089-39.947,28.867-40,53.6v216
				c0,4.418,3.582,8,8,8h40c3.908-0.001,7.243-2.826,7.888-6.68l6.888-41.32h354.448l6.888,41.32c0.645,3.854,3.98,6.679,7.888,6.68
				h40c4.418,0,8-3.582,8-8v-216C479.947,230.879,463.696,209.101,440,202.012z M182.16,39.796
				c0.24-13.023,10.895-23.439,23.92-23.384c6.366,0.002,12.473,2.524,16.984,7.016l11.28,11.28c3.124,3.123,8.188,3.123,11.312,0
				l11.248-11.2c9.518-9.072,24.482-9.072,34,0c4.322,4.325,6.807,10.151,6.936,16.264v0.144c0.252,6.543-2.266,12.89-6.936,17.48
				L240,108.3l-50.904-50.904C184.406,52.77,181.887,46.378,182.16,39.796z M56,103.612c0.035-30.913,25.087-55.965,56-56h54.736
				c1.412,8.005,5.272,15.376,11.048,21.096l56.56,56.56c3.124,3.123,8.188,3.123,11.312,0l56.56-56.56
				c5.781-5.717,9.644-13.089,11.056-21.096H368c30.913,0.035,55.965,25.087,56,56v96h-24v-56c0-13.255-10.745-24-24-24h-96
				c-13.255,0-24,10.745-24,24v56h-32v-56c0-13.255-10.745-24-24-24h-96c-13.255,0-24,10.745-24,24v56H56V103.612z M384,143.612v56
				H272v-56c0-4.418,3.582-8,8-8h96C380.418,135.612,384,139.194,384,143.612z M208,143.612v56H96v-56c0-4.418,3.582-8,8-8h96
				C204.418,135.612,208,139.194,208,143.612z M41.224,463.612H16v-32h30.552L41.224,463.612z M464,463.612h-25.224l-5.328-32H464
				V463.612z M464,415.612H16v-112h448V415.612z M464,287.612H16v-32c0.026-22.08,17.92-39.974,40-40h368
				c22.08,0.026,39.974,17.92,40,40V287.612z"/>
			<path d="M40,335.612h336c4.418,0,8-3.582,8-8s-3.582-8-8-8H40c-4.418,0-8,3.582-8,8S35.582,335.612,40,335.612z"/>
			<path d="M408,335.612h32c4.418,0,8-3.582,8-8s-3.582-8-8-8h-32c-4.418,0-8,3.582-8,8S403.582,335.612,408,335.612z"/>
		</g>
	</g>
</g>
<g>
</g>
<g>
</g>
<g>
</g>
<g>
</g>
<g>
</g>
<g>
</g>
<g>
</g>
<g>
</g>
<g>
</g>
<g>
</g>
<g>
</g>
<g>
</g>
<g>
</g>
<g>
</g>
<g>
</g>
</svg>
