<?xml version="1.0" encoding="iso-8859-1"?>
<!-- Generator: Adobe Illustrator 19.0.0, SVG Export Plug-In . SVG Version: 6.00 Build 0)  -->
<svg version="1.1" id="Capa_1" xmlns="http://www.w3.org/2000/svg" xmlns:xlink="http://www.w3.org/1999/xlink" x="0px" y="0px"
	 viewBox="0 0 480 480" style="enable-background:new 0 0 480 480;" xml:space="preserve">
<g>
	<g>
		<g>
			<path d="M472,416H144V120c0-4.418,3.582-8,8-8h96v56c0,4.418,3.582,8,8,8h16v40c0,4.418,3.582,8,8,8h48c4.418,0,8-3.582,8-8v-40
				h16c4.418,0,8-3.582,8-8v-56h64c4.418,0,8-3.582,8-8V8c0-4.418-3.582-8-8-8H104C46.59,0.066,0.066,46.59,0,104v368
				c0,4.418,3.582,8,8,8h464c4.418,0,8-3.582,8-8v-48C480,419.582,476.418,416,472,416z M320,208h-32v-32h32V208z M344,160h-80v-48
				h80V160z M464,464H16V104c0.057-48.577,39.423-87.943,88-88h312v80H152c-13.255,0-24,10.745-24,24v304c0,4.418,3.582,8,8,8h328
				V464z"/>
			<path d="M232,272v72c0.126,39.764,32.463,71.898,72.227,71.772c36.494-0.115,67.131-27.517,71.301-63.772H384
				c13.255,0,24-10.745,24-24v-16c0-13.255-10.745-24-24-24h-8v-16H232z M360,344c-0.04,30.911-25.089,55.96-56,56
				c-30.911-0.04-55.96-25.089-56-56v-56h112V344z M384,304c4.418,0,8,3.582,8,8v16c0,4.418-3.582,8-8,8h-8v-32H384z"/>
			<path d="M80,48c-17.673,0-32,14.327-32,32s14.327,32,32,32s32-14.327,32-32S97.673,48,80,48z M80,96c-8.837,0-16-7.163-16-16
				s7.163-16,16-16s16,7.163,16,16S88.837,96,80,96z"/>
			<path d="M232,64h32c4.418,0,8-3.582,8-8s-3.582-8-8-8h-32c-4.418,0-8,3.582-8,8S227.582,64,232,64z"/>
			<path d="M296,64h32c4.418,0,8-3.582,8-8s-3.582-8-8-8h-32c-4.418,0-8,3.582-8,8S291.582,64,296,64z"/>
			<path d="M360,64h32c4.418,0,8-3.582,8-8s-3.582-8-8-8h-32c-4.418,0-8,3.582-8,8S355.582,64,360,64z"/>
		</g>
	</g>
</g>
<g>
</g>
<g>
</g>
<g>
</g>
<g>
</g>
<g>
</g>
<g>
</g>
<g>
</g>
<g>
</g>
<g>
</g>
<g>
</g>
<g>
</g>
<g>
</g>
<g>
</g>
<g>
</g>
<g>
</g>
</svg>
