<?xml version="1.0" encoding="iso-8859-1"?>
<!-- Generator: Adobe Illustrator 19.0.0, SVG Export Plug-In . SVG Version: 6.00 Build 0)  -->
<svg version="1.1" id="Capa_1" xmlns="http://www.w3.org/2000/svg" xmlns:xlink="http://www.w3.org/1999/xlink" x="0px" y="0px"
	 viewBox="0 0 480 480" style="enable-background:new 0 0 480 480;" xml:space="preserve">
<g>
	<g>
		<g>
			<path d="M472,0L472,0H8C3.582,0,0,3.582,0,8v432c0,4.418,3.582,8,8,8h48v24c0,4.418,3.582,8,8,8h24
				c3.672-0.001,6.871-2.501,7.76-6.064L102.24,448h275.52l6.48,25.936c0.889,3.563,4.088,6.063,7.76,6.064h24c4.418,0,8-3.582,8-8
				v-24h48c4.418,0,8-3.582,8-8V8C480,3.582,476.418,0,472,0z M16,16h216v320H16V16z M81.752,464H72v-16h13.752L81.752,464z
				 M408,464h-9.752l-4-16H408V464z M464,432H16v-32h448V432z M464,384H16v-32h448V384z M464,336H248V16h216V336z"/>
			<rect x="232" y="360" width="16" height="16"/>
			<rect x="232" y="408" width="16" height="16"/>
			<rect x="264" y="152" width="16" height="48"/>
			<rect x="200" y="152" width="16" height="48"/>
		</g>
	</g>
</g>
<g>
</g>
<g>
</g>
<g>
</g>
<g>
</g>
<g>
</g>
<g>
</g>
<g>
</g>
<g>
</g>
<g>
</g>
<g>
</g>
<g>
</g>
<g>
</g>
<g>
</g>
<g>
</g>
<g>
</g>
</svg>
