<?xml version="1.0" encoding="iso-8859-1"?>
<!-- Generator: Adobe Illustrator 19.0.0, SVG Export Plug-In . SVG Version: 6.00 Build 0)  -->
<svg version="1.1" id="Capa_1" xmlns="http://www.w3.org/2000/svg" xmlns:xlink="http://www.w3.org/1999/xlink" x="0px" y="0px"
	 viewBox="0 0 480 480" style="enable-background:new 0 0 480 480;" xml:space="preserve">
<g>
	<g>
		<g>
			<path d="M472,44H8c-4.418,0-8,3.582-8,8v48c0,4.418,3.582,8,8,8h8v104c0,123.712,100.288,224,224,224s224-100.288,224-224V108h8
				c4.418,0,8-3.582,8-8V52C480,47.582,476.418,44,472,44z M448,212c0,114.875-93.125,208-208,208S32,326.875,32,212V108h416V212z
				 M464,92H16V60h448V92z"/>
			<path d="M240,396c70.692,0,128-57.308,128-128s-57.308-128-128-128s-128,57.308-128,128C112.084,338.658,169.342,395.916,240,396
				z M240,156c61.856,0,112,50.144,112,112s-50.144,112-112,112s-112-50.144-112-112C128.066,206.172,178.172,156.066,240,156z"/>
			<path d="M240,364c26.499-0.026,47.974-21.501,48-48c0-26.51-21.49-48-48-48c-26.51,0-48,21.49-48,48
				C192,342.51,213.49,364,240,364z M240,284c17.673,0,32,14.327,32,32c0,17.673-14.327,32-32,32c-17.673,0-32-14.327-32-32
				C208,298.327,222.327,284,240,284z"/>
		</g>
	</g>
</g>
<g>
</g>
<g>
</g>
<g>
</g>
<g>
</g>
<g>
</g>
<g>
</g>
<g>
</g>
<g>
</g>
<g>
</g>
<g>
</g>
<g>
</g>
<g>
</g>
<g>
</g>
<g>
</g>
<g>
</g>
</svg>
