<?xml version="1.0" encoding="iso-8859-1"?>
<!-- Generator: Adobe Illustrator 19.0.0, SVG Export Plug-In . SVG Version: 6.00 Build 0)  -->
<svg version="1.1" id="Capa_1" xmlns="http://www.w3.org/2000/svg" xmlns:xlink="http://www.w3.org/1999/xlink" x="0px" y="0px"
	 viewBox="0 0 480 480" style="enable-background:new 0 0 480 480;" xml:space="preserve">
<g>
	<g>
		<g>
			<path d="M64,368h288c4.418,0,8-3.582,8-8s-3.582-8-8-8H64c-4.418,0-8,3.582-8,8S59.582,368,64,368z"/>
			<path d="M384,368h32c4.418,0,8-3.582,8-8s-3.582-8-8-8h-32c-4.418,0-8,3.582-8,8S379.582,368,384,368z"/>
			<path d="M456,32H24C10.745,32,0,42.745,0,56s10.745,24,24,24v312c0,4.418,3.582,8,8,8h24v40c0,4.418,3.582,8,8,8h24
				c3.032,0.001,5.805-1.712,7.16-4.424L116.944,400h246.112l21.784,43.576c1.355,2.712,4.128,4.425,7.16,4.424h24
				c4.418,0,8-3.582,8-8v-40h24c4.418,0,8-3.582,8-8V80c13.255,0,24-10.745,24-24S469.255,32,456,32z M83.056,432H72v-32h27.056
				L83.056,432z M408,432h-11.056l-16-32H408V432z M440,384H40V240h400V384z M440,224H40V80h400V224z M456,64H24
				c-4.418,0-8-3.582-8-8s3.582-8,8-8h432c4.418,0,8,3.582,8,8S460.418,64,456,64z"/>
			<path d="M192,112h96c4.418,0,8-3.582,8-8s-3.582-8-8-8h-96c-4.418,0-8,3.582-8,8S187.582,112,192,112z"/>
			<path d="M192,272h96c4.418,0,8-3.582,8-8s-3.582-8-8-8h-96c-4.418,0-8,3.582-8,8S187.582,272,192,272z"/>
		</g>
	</g>
</g>
<g>
</g>
<g>
</g>
<g>
</g>
<g>
</g>
<g>
</g>
<g>
</g>
<g>
</g>
<g>
</g>
<g>
</g>
<g>
</g>
<g>
</g>
<g>
</g>
<g>
</g>
<g>
</g>
<g>
</g>
</svg>
