<?xml version="1.0" encoding="iso-8859-1"?>
<!-- Generator: Adobe Illustrator 19.0.0, SVG Export Plug-In . SVG Version: 6.00 Build 0)  -->
<svg version="1.1" id="Capa_1" xmlns="http://www.w3.org/2000/svg" xmlns:xlink="http://www.w3.org/1999/xlink" x="0px" y="0px"
	 viewBox="0 0 480 480" style="enable-background:new 0 0 480 480;" xml:space="preserve">
<g>
	<g>
		<g>
			<path d="M472,72H8c-4.418,0-8,3.582-8,8v272c0,4.418,3.582,8,8,8h48v40c0,4.418,3.582,8,8,8h24
				c3.032,0.001,5.805-1.712,7.16-4.424L116.944,360h246.112l21.784,43.576c1.355,2.712,4.128,4.425,7.16,4.424h24
				c4.418,0,8-3.582,8-8v-40h48c4.418,0,8-3.582,8-8V80C480,75.582,476.418,72,472,72z M83.056,392H72v-32h27.056L83.056,392z
				 M144,344H16V88h128V344z M320,344H160V224h160V344z M320,208H160V88h160V208z M408,392h-11.056l-16-32H408V392z M464,344H336V88
				h128V344z"/>
			<circle cx="360" cy="216" r="16"/>
			<circle cx="120" cy="216" r="16"/>
		</g>
	</g>
</g>
<g>
</g>
<g>
</g>
<g>
</g>
<g>
</g>
<g>
</g>
<g>
</g>
<g>
</g>
<g>
</g>
<g>
</g>
<g>
</g>
<g>
</g>
<g>
</g>
<g>
</g>
<g>
</g>
<g>
</g>
</svg>
