<?xml version="1.0" encoding="iso-8859-1"?>
<!-- Generator: Adobe Illustrator 19.0.0, SVG Export Plug-In . SVG Version: 6.00 Build 0)  -->
<svg version="1.1" id="Capa_1" xmlns="http://www.w3.org/2000/svg" xmlns:xlink="http://www.w3.org/1999/xlink" x="0px" y="0px"
	 viewBox="0 0 480 480" style="enable-background:new 0 0 480 480;" xml:space="preserve">
<g>
	<g>
		<g>
			<path d="M472,272h-96v-16h48c13.255,0,24-10.745,24-24V24c0-13.255-10.745-24-24-24H56C42.745,0,32,10.745,32,24v208
				c0,13.255,10.745,24,24,24h48v16H8c-4.418,0-8,3.582-8,8v192c0,4.418,3.582,8,8,8h464c4.418,0,8-3.582,8-8V280
				C480,275.582,476.418,272,472,272z M56,240c-4.418,0-8-3.582-8-8V24c0-4.418,3.582-8,8-8h368c4.418,0,8,3.582,8,8v208
				c0,4.418-3.582,8-8,8H56z M360,256v16H120v-16H360z M144,464H16V288h128V464z M320,464H160v-80h160V464z M320,368H160v-80h160
				V368z M464,464H336V288h128V464z"/>
			<rect x="112" y="352" width="16" height="48"/>
			<rect x="352" y="352" width="16" height="48"/>
			<path d="M424,24H56v208h368V24z M408,216H72V40h336V216z"/>
		</g>
	</g>
</g>
<g>
</g>
<g>
</g>
<g>
</g>
<g>
</g>
<g>
</g>
<g>
</g>
<g>
</g>
<g>
</g>
<g>
</g>
<g>
</g>
<g>
</g>
<g>
</g>
<g>
</g>
<g>
</g>
<g>
</g>
</svg>
