<?xml version="1.0" encoding="iso-8859-1"?>
<!-- Generator: Adobe Illustrator 19.0.0, SVG Export Plug-In . SVG Version: 6.00 Build 0)  -->
<svg version="1.1" id="Capa_1" xmlns="http://www.w3.org/2000/svg" xmlns:xlink="http://www.w3.org/1999/xlink" x="0px" y="0px"
	 viewBox="0 0 480 480" style="enable-background:new 0 0 480 480;" xml:space="preserve">
<g>
	<g>
		<g>
			<path d="M456,275.141h-16v-152c0-4.418-3.582-8-8-8h-56v-24c0-4.418-3.582-8-8-8H240c-4.418,0-8,3.582-8,8v16.48l-51.424-29.688
				c-3.826-2.209-8.719-0.898-10.928,2.928l-96,166.28c-2.209,3.826-0.898,8.719,2.928,10.928l29.568,17.072H24
				c-13.255,0-24,10.745-24,24v16c0,13.255,10.745,24,24,24h24v56c0,4.418,3.582,8,8,8h32c4.418,0,8-3.582,8-8v-56h288v56
				c0,4.418,3.582,8,8,8h32c4.418,0,8-3.582,8-8v-56h24c13.255,0,24-10.745,24-24v-16C480,285.886,469.255,275.141,456,275.141z
				 M376,131.141h48v144h-48V131.141z M312,99.141h48v176h-48V99.141z M248,99.141h48v176h-48V99.141z M91.504,248.213l88-152.416
				l41.6,24l-88,152.416L91.504,248.213z M232,132.869v142.272h-82.144L232,132.869z M80,387.141H64v-48h16V387.141z M416,387.141
				h-16v-48h16V387.141z M464,315.141c0,4.418-3.582,8-8,8H24c-4.418,0-8-3.582-8-8v-16c0-4.418,3.582-8,8-8h432
				c4.418,0,8,3.582,8,8V315.141z"/>
			<path d="M280,107.141h-16c-4.418,0-8,3.582-8,8s3.582,8,8,8h16c4.418,0,8-3.582,8-8S284.418,107.141,280,107.141z"/>
			<path d="M344,107.141h-16c-4.418,0-8,3.582-8,8s3.582,8,8,8h16c4.418,0,8-3.582,8-8S348.418,107.141,344,107.141z"/>
			<path d="M408,139.141h-16c-4.418,0-8,3.582-8,8s3.582,8,8,8h16c4.418,0,8-3.582,8-8S412.418,139.141,408,139.141z"/>
			<path d="M280,251.141h-16c-4.418,0-8,3.582-8,8c0,4.418,3.582,8,8,8h16c4.418,0,8-3.582,8-8
				C288,254.722,284.418,251.141,280,251.141z"/>
			<path d="M181.36,124.581l13.856,8c3.828,2.209,8.723,0.896,10.932-2.932c2.209-3.828,0.896-8.723-2.932-10.932l-13.856-8
				c-3.828-2.209-8.723-0.896-10.932,2.932C176.219,117.477,177.532,122.371,181.36,124.581z"/>
			<path d="M131.293,243.482c-0.031-0.018-0.062-0.036-0.093-0.054l-13.856-8c-3.841-2.183-8.725-0.839-10.908,3.002
				c-2.163,3.805-0.867,8.641,2.908,10.854l13.856,8c3.811,2.235,8.713,0.957,10.948-2.854
				C136.383,250.619,135.105,245.717,131.293,243.482z"/>
			<path d="M344,251.141h-16c-4.418,0-8,3.582-8,8c0,4.418,3.582,8,8,8h16c4.418,0,8-3.582,8-8
				C352,254.722,348.418,251.141,344,251.141z"/>
			<path d="M408,251.141h-16c-4.418,0-8,3.582-8,8c0,4.418,3.582,8,8,8h16c4.418,0,8-3.582,8-8
				C416,254.722,412.418,251.141,408,251.141z"/>
		</g>
	</g>
</g>
<g>
</g>
<g>
</g>
<g>
</g>
<g>
</g>
<g>
</g>
<g>
</g>
<g>
</g>
<g>
</g>
<g>
</g>
<g>
</g>
<g>
</g>
<g>
</g>
<g>
</g>
<g>
</g>
<g>
</g>
</svg>
