<?xml version="1.0" encoding="iso-8859-1"?>
<!-- Generator: Adobe Illustrator 19.0.0, SVG Export Plug-In . SVG Version: 6.00 Build 0)  -->
<svg version="1.1" id="Capa_1" xmlns="http://www.w3.org/2000/svg" xmlns:xlink="http://www.w3.org/1999/xlink" x="0px" y="0px"
	 viewBox="0 0 480 480" style="enable-background:new 0 0 480 480;" xml:space="preserve">
<g>
	<g>
		<g>
			<path d="M230.349,369.356c-21.339-5.716-43.272,6.949-48.987,28.288c-2.745,10.249-1.306,21.168,4,30.356
				c5.309,9.182,14.044,15.883,24.288,18.632c21.339,5.716,43.272-6.949,48.988-28.288
				C264.353,397.005,251.688,375.072,230.349,369.356z M196.802,401.792c3.314-12.711,16.305-20.328,29.016-17.014
				c3.551,0.926,6.84,2.661,9.609,5.07l-38.968,22.496C195.785,408.845,195.902,405.24,196.802,401.792z M243.202,414.208
				c-3.392,12.763-16.488,20.36-29.251,16.969c-3.48-0.925-6.705-2.623-9.437-4.969l39.032-22.536
				C244.217,407.166,244.099,410.765,243.202,414.208z"/>
			<path d="M396.002,64L396.002,64h-37.296l5.296-55.2c0-0.128-0.048-0.248-0.048-0.376s0.048-0.288,0.048-0.424
				c-0.048-0.472-0.141-0.938-0.28-1.392c-0.052-0.471-0.145-0.937-0.28-1.392c-0.267-0.624-0.611-1.213-1.024-1.752
				c-0.148-0.292-0.314-0.576-0.496-0.848c-0.04-0.048-0.104-0.064-0.152-0.104c-0.583-0.577-1.252-1.061-1.984-1.432
				c-0.193-0.146-0.393-0.282-0.6-0.408c-1.004-0.44-2.088-0.669-3.184-0.672h-304C47.584-0.002,44,3.578,43.998,7.996
				c-0.001,1.267,0.3,2.516,0.876,3.644L85.13,90.464l25.8,212.288c1.821,14.88,9.54,28.406,21.424,37.544
				c-16.524,6.674-28.862,20.844-33.2,38.128l-22.912,91.64c-1.069,4.287,1.539,8.629,5.826,9.698
				C82.701,479.92,83.35,480,84.002,480h272c4.418-0.001,7.999-3.584,7.998-8.002c0-0.652-0.08-1.301-0.238-1.934L340.85,378.4
				c-3.931-15.664-14.452-28.858-28.848-36.176c13.733-9.361,22.571-24.363,24.104-40.912L354.13,112h25.872
				c4.278-0.005,7.803,3.358,8,7.632l-13.992,125.6c-0.117,0.969-0.17,1.944-0.16,2.92c-0.006,13.167,10.663,23.845,23.829,23.851
				c12.246,0.006,22.504-9.267,23.731-21.451L436.002,104C435.976,81.92,418.082,64.026,396.002,64z M325.33,382.296L345.754,464
				H94.25l20.424-81.704c4.438-17.816,20.447-30.315,38.808-30.296h133.04C304.883,351.981,320.892,364.48,325.33,382.296z
				 M320.17,299.8c-1.879,20.565-19.166,36.281-39.816,36.2H166.522c-18.953-0.052-35.256-13.424-39.016-32h28.496
				c4.418,0,8-3.582,8-8s-3.582-8-8-8h-30.744l-3.888-32h34.632c4.418,0,8-3.582,8-8s-3.582-8-8-8h-36.576l-3.896-32h40.472
				c4.418,0,8-3.582,8-8s-3.582-8-8-8h-42.4l-3.888-32h46.288c4.418,0,8-3.582,8-8s-3.582-8-8-8h-48.248l-3.888-32h52.136
				c4.418,0,8-3.582,8-8s-3.582-8-8-8h-54.08l-1.08-8.88c-0.108-0.931-0.379-1.835-0.8-2.672L65.066,16h282.136L320.17,299.8z
				 M405.482,248.968c-0.437,4.308-4.283,7.446-8.591,7.009c-4.007-0.406-7.054-3.782-7.049-7.809l14.112-127.28
				c0.032-0.295,0.049-0.591,0.048-0.888c0-13.255-10.745-24-24-24h-24.344l1.52-16h38.824c12.978-0.063,23.641,10.228,24.04,23.2
				L405.482,248.968z"/>
		</g>
	</g>
</g>
<g>
</g>
<g>
</g>
<g>
</g>
<g>
</g>
<g>
</g>
<g>
</g>
<g>
</g>
<g>
</g>
<g>
</g>
<g>
</g>
<g>
</g>
<g>
</g>
<g>
</g>
<g>
</g>
<g>
</g>
</svg>
