<?xml version="1.0" encoding="iso-8859-1"?>
<!-- Generator: Adobe Illustrator 19.0.0, SVG Export Plug-In . SVG Version: 6.00 Build 0)  -->
<svg version="1.1" id="Capa_1" xmlns="http://www.w3.org/2000/svg" xmlns:xlink="http://www.w3.org/1999/xlink" x="0px" y="0px"
	 viewBox="0 0 480 480" style="enable-background:new 0 0 480 480;" xml:space="preserve">
<g>
	<g>
		<g>
			<path d="M440,170.4V104c-0.048-39.744-32.256-71.952-72-72H112c-39.744,0.048-71.952,32.256-72,72v66.4
				C16.305,177.489,0.053,199.267,0,224v216c0,4.418,3.582,8,8,8h40c3.908-0.001,7.243-2.826,7.888-6.68L62.776,400h354.448
				l6.888,41.32c0.645,3.854,3.98,6.679,7.888,6.68h40c4.418,0,8-3.582,8-8V224C479.947,199.267,463.696,177.489,440,170.4z M56,104
				c0.035-30.913,25.087-55.965,56-56h256c30.913,0.035,55.965,25.087,56,56v64h-24v-56c0-13.255-10.745-24-24-24h-96
				c-13.255,0-24,10.745-24,24v56h-32v-56c0-13.255-10.745-24-24-24h-96c-13.255,0-24,10.745-24,24v56H56V104z M384,112v56H272v-56
				c0-4.418,3.582-8,8-8h96C380.418,104,384,107.582,384,112z M208,112v56H96v-56c0-4.418,3.582-8,8-8h96
				C204.418,104,208,107.582,208,112z M41.224,432H16v-32h30.552L41.224,432z M464,432h-25.224l-5.328-32H464V432z M464,384H16V272
				h448V384z M464,256H16v-32c0.026-22.08,17.92-39.974,40-40h368c22.08,0.026,39.974,17.92,40,40V256z"/>
			<path d="M40,304h336c4.418,0,8-3.582,8-8s-3.582-8-8-8H40c-4.418,0-8,3.582-8,8S35.582,304,40,304z"/>
			<path d="M408,304h32c4.418,0,8-3.582,8-8s-3.582-8-8-8h-32c-4.418,0-8,3.582-8,8S403.582,304,408,304z"/>
		</g>
	</g>
</g>
<g>
</g>
<g>
</g>
<g>
</g>
<g>
</g>
<g>
</g>
<g>
</g>
<g>
</g>
<g>
</g>
<g>
</g>
<g>
</g>
<g>
</g>
<g>
</g>
<g>
</g>
<g>
</g>
<g>
</g>
</svg>
