<?xml version="1.0" encoding="iso-8859-1"?>
<!-- Generator: Adobe Illustrator 19.0.0, SVG Export Plug-In . SVG Version: 6.00 Build 0)  -->
<svg version="1.1" id="Capa_1" xmlns="http://www.w3.org/2000/svg" xmlns:xlink="http://www.w3.org/1999/xlink" x="0px" y="0px"
	 viewBox="0 0 480.036 480.036" style="enable-background:new 0 0 480.036 480.036;" xml:space="preserve">
<g>
	<g>
		<path d="M456.018,200.036c-0.394-0.003-0.787,0.026-1.176,0.088l-28.392,4.24c-109.431,16.146-220.499,17.966-330.4,5.416V104.036
			c0.026-22.08,17.92-39.974,40-40h16v16c0,4.418,3.582,8,8,8h8v40c0,4.418,3.582,8,8,8s8-3.582,8-8v-40h16v88c0,4.418,3.582,8,8,8
			s8-3.582,8-8v-88h16v16c0,4.418,3.582,8,8,8s8-3.582,8-8v-16h8c4.418,0,8-3.582,8-8v-24C264.14,25.179,239.199,0.091,208.342,0
			c-14.713-0.043-28.85,5.719-39.34,16.036h-32.984c-48.577,0.057-87.943,39.423-88,88v99.456l-22.824-3.368
			c-0.389-0.062-0.782-0.091-1.176-0.088c-13.224,0.074-23.926,10.776-24,24c0.001,11.097,7.609,20.747,18.4,23.336l16.32,97.728
			c5.4,32.465,25.858,60.455,55.152,75.456c-9.723,7.444-21.627,11.478-33.872,11.48c-13.255,0-24,10.745-24,24s10.745,24,24,24
			c35.469-0.073,68.473-18.151,87.632-48h192.736c19.159,29.849,52.163,47.927,87.632,48c13.255,0,24-10.745,24-24s-10.745-24-24-24
			c-12.258,0.004-24.177-4.031-33.912-11.48c29.294-14.999,49.754-42.984,55.16-75.448l16.352-97.736
			c4.291-0.986,8.208-3.182,11.288-6.328c4.59-4.463,7.159-10.606,7.112-17.008C480.018,210.781,469.273,200.036,456.018,200.036z
			 M168.018,56.036c0.092-22.053,17.947-39.908,40-40c22.08,0.026,39.974,17.92,40,40v16h-80V56.036z M64.018,104.036
			c0.044-39.746,32.254-71.956,72-72h21.424c-0.096,0.208-0.152,0.424-0.248,0.632c-0.967,2.092-1.801,4.243-2.496,6.44
			c-0.12,0.368-0.256,0.72-0.368,1.088c-0.69,2.33-1.225,4.703-1.6,7.104c0,0.248-0.128,0.488-0.168,0.736h-16.544
			c-30.913,0.035-55.965,25.087-56,56v103.92c-1.024-0.128-2.024-0.24-3.064-0.376c-2.8-0.36-5.672-0.744-8.568-1.152
			c-1.432-0.192-2.904-0.408-4.368-0.616V104.036z M56.018,464.036c-2.158,0.005-4.221-0.88-5.704-2.448
			c-1.484-1.465-2.312-3.467-2.296-5.552c-0.004-2.157,0.885-4.219,2.456-5.696c1.455-1.495,3.458-2.328,5.544-2.304
			c18.907,0.026,37.064-7.398,50.536-20.664c0.584,0.176,1.184,0.288,1.768,0.456c1.52,0.448,3.048,0.8,4.584,1.208
			s2.888,0.688,4.344,0.976s3.104,0.552,4.656,0.8c0.896,0.136,1.776,0.344,2.672,0.456
			C107.824,451.957,82.639,463.994,56.018,464.036z M424.018,448.036c2.158-0.007,4.223,0.879,5.704,2.448
			c1.484,1.465,2.312,3.467,2.296,5.552c0.003,2.155-0.882,4.215-2.448,5.696c-1.459,1.493-3.465,2.325-5.552,2.304
			c-26.627-0.05-51.813-12.099-68.56-32.8c0.896-0.112,1.776-0.32,2.672-0.448c1.552-0.24,3.096-0.488,4.64-0.8
			c1.544-0.312,2.928-0.624,4.392-0.984c1.464-0.36,3.024-0.752,4.52-1.184c0.6-0.176,1.208-0.288,1.8-0.472
			C386.948,440.626,405.106,448.06,424.018,448.036z M429.49,342.492c-5.196,31.19-26.727,57.195-56.4,68.12
			c-9.732,3.595-20.025,5.431-30.4,5.424H137.378c-2.832,0-5.64-0.16-8.432-0.424c-39.695-3.777-71.877-33.798-78.4-73.136
			l-15.464-92.68l16.16,2.4c62.5,9.246,125.595,13.888,188.776,13.888c63.189-0.001,126.292-4.646,188.8-13.896l16.16-2.4
			L429.49,342.492z M461.57,229.732c-1.459,1.493-3.465,2.325-5.552,2.304c-0.464,0-0.927,0.04-1.384,0.12l-28.184,4.208
			c-123.615,18.296-249.249,18.296-372.864,0l-26.968-4l-1.216-0.216c-0.457-0.077-0.92-0.114-1.384-0.112c-4.418,0-8-3.582-8-8
			c-0.004-2.157,0.885-4.219,2.456-5.696c1.334-1.375,3.136-2.197,5.048-2.304l27.84,4.152l3.472,0.464
			c5.768,0.864,11.288,1.648,16.64,2.36c5.352,0.712,10.552,1.344,15.656,1.92c113.591,13.566,228.483,11.951,341.648-4.8
			l27.736-4.096c4.223,0.262,7.512,3.768,7.504,8C464.021,226.191,463.135,228.252,461.57,229.732z"/>
	</g>
</g>
<g>
	<g>
		<path d="M240.018,128.036c-4.418,0-8,3.582-8,8v40c0,4.418,3.582,8,8,8s8-3.582,8-8v-40
			C248.018,131.618,244.436,128.036,240.018,128.036z"/>
	</g>
</g>
<g>
	<g>
		<path d="M176.018,152.036c-4.418,0-8,3.582-8,8v16c0,4.418,3.582,8,8,8s8-3.582,8-8v-16
			C184.018,155.618,180.436,152.036,176.018,152.036z"/>
	</g>
</g>
<g>
</g>
<g>
</g>
<g>
</g>
<g>
</g>
<g>
</g>
<g>
</g>
<g>
</g>
<g>
</g>
<g>
</g>
<g>
</g>
<g>
</g>
<g>
</g>
<g>
</g>
<g>
</g>
<g>
</g>
</svg>
