<?xml version="1.0" encoding="iso-8859-1"?>
<!-- Generator: Adobe Illustrator 19.0.0, SVG Export Plug-In . SVG Version: 6.00 Build 0)  -->
<svg version="1.1" id="Capa_1" xmlns="http://www.w3.org/2000/svg" xmlns:xlink="http://www.w3.org/1999/xlink" x="0px" y="0px"
	 viewBox="0 0 480.001 480.001" style="enable-background:new 0 0 480.001 480.001;" xml:space="preserve">
<g>
	<g>
		<path d="M456,100c-0.394-0.003-0.787,0.026-1.176,0.088l-28.392,4.24c-123.612,18.296-249.244,18.296-372.856,0l-28.4-4.24
			C24.787,100.027,24.394,99.997,24,100c-13.224,0.074-23.926,10.776-24,24c0.001,11.097,7.609,20.747,18.4,23.336l16.32,97.728
			c5.401,32.465,25.858,60.455,55.152,75.456C80.149,327.964,68.245,331.998,56,332c-13.255,0-24,10.745-24,24s10.745,24,24,24
			c35.469-0.073,68.473-18.151,87.632-48h192.736c19.159,29.849,52.163,47.927,87.632,48c13.255,0,24-10.745,24-24s-10.745-24-24-24
			c-12.258,0.004-24.177-4.031-33.912-11.48c29.294-14.999,49.754-42.984,55.16-75.448h0l16.352-97.736
			c4.291-0.986,8.208-3.182,11.288-6.328c4.59-4.463,7.159-10.606,7.112-17.008C480,110.746,469.255,100,456,100z M56,364
			c-2.158,0.005-4.222-0.88-5.704-2.448c-1.484-1.465-2.312-3.467-2.296-5.552c-0.004-2.157,0.885-4.219,2.456-5.696
			c1.455-1.495,3.458-2.328,5.544-2.304c18.907,0.026,37.064-7.398,50.536-20.664c0.584,0.176,1.184,0.288,1.768,0.456
			c1.52,0.448,3.048,0.8,4.584,1.208s2.888,0.688,4.344,0.976s3.104,0.552,4.656,0.8c0.896,0.136,1.776,0.344,2.672,0.456
			C107.807,351.921,82.622,363.958,56,364z M424,348c2.158-0.007,4.223,0.879,5.704,2.448c1.484,1.465,2.312,3.467,2.296,5.552
			c0.003,2.155-0.882,4.215-2.448,5.696c-1.459,1.493-3.465,2.325-5.552,2.304c-26.627-0.05-51.813-12.099-68.56-32.8
			c0.896-0.112,1.776-0.32,2.672-0.448c1.552-0.24,3.096-0.488,4.64-0.8c1.544-0.312,2.928-0.624,4.392-0.984
			c1.464-0.36,3.024-0.752,4.52-1.184c0.6-0.176,1.208-0.288,1.8-0.472C386.93,340.591,405.088,348.024,424,348z M429.472,242.456
			c-5.196,31.19-26.727,57.195-56.4,68.12h0c-9.732,3.595-20.025,5.431-30.4,5.424H137.36c-2.832,0-5.64-0.16-8.432-0.424
			c-39.695-3.777-71.877-33.798-78.4-73.136l-15.464-92.68l16.16,2.4c62.5,9.246,125.596,13.888,188.776,13.888
			c63.189-0.001,126.292-4.646,188.8-13.896l16.16-2.4L429.472,242.456z M461.552,129.696c-1.459,1.493-3.465,2.325-5.552,2.304
			c-0.464,0-0.927,0.04-1.384,0.12l-28.184,4.208c-123.615,18.296-249.249,18.296-372.864,0l-26.968-4l-1.216-0.216
			c-0.457-0.077-0.92-0.114-1.384-0.112c-4.418,0-8-3.582-8-8c-0.004-2.156,0.885-4.218,2.456-5.696
			c1.333-1.375,3.136-2.197,5.048-2.304l27.72,4.136c125.185,18.532,252.415,18.532,377.6,0L456.496,116
			c4.223,0.262,7.512,3.768,7.504,8C464.003,126.155,463.118,128.216,461.552,129.696z"/>
	</g>
</g>
<g>
</g>
<g>
</g>
<g>
</g>
<g>
</g>
<g>
</g>
<g>
</g>
<g>
</g>
<g>
</g>
<g>
</g>
<g>
</g>
<g>
</g>
<g>
</g>
<g>
</g>
<g>
</g>
<g>
</g>
</svg>
