<?xml version="1.0" encoding="iso-8859-1"?>
<!-- Generator: Adobe Illustrator 19.0.0, SVG Export Plug-In . SVG Version: 6.00 Build 0)  -->
<svg version="1.1" id="Capa_1" xmlns="http://www.w3.org/2000/svg" xmlns:xlink="http://www.w3.org/1999/xlink" x="0px" y="0px"
	 viewBox="0 0 480 480" style="enable-background:new 0 0 480 480;" xml:space="preserve">
<g>
	<g>
		<g>
			<path d="M440,160L440,160l-32,0V40c-0.026-22.08-17.92-39.974-40-40H112C89.92,0.026,72.026,17.92,72,40v120H40
				c-22.08,0.026-39.974,17.92-40,40v176c0,4.418,3.582,8,8,8h24v8c0,13.255,10.745,24,24,24h16v56c0,4.418,3.582,8,8,8h24
				c3.337,0.002,6.325-2.067,7.496-5.192L133.544,416h212.912l22.048,58.808c1.171,3.125,4.159,5.194,7.496,5.192h24
				c4.418,0,8-3.582,8-8v-56h16c13.255,0,24-10.745,24-24v-8h24c4.418,0,8-3.582,8-8V200C479.974,177.92,462.08,160.026,440,160z
				 M88,40c0-13.255,10.745-24,24-24h256c13.255,0,24,10.745,24,24v120h-32c-4.418,0-8,3.582-8,8v88H128v-88c0-4.418-3.582-8-8-8H88
				V40z M32,280v88H16V200c0-13.255,10.745-24,24-24h72v80H56C42.745,256,32,266.745,32,280z M98.456,464H88v-48h28.456L98.456,464z
				 M392,464h-10.456l-18-48H392V464z M432,392c0,4.418-3.582,8-8,8H56c-4.418,0-8-3.582-8-8V280c0-4.418,3.582-8,8-8h368
				c4.418,0,8,3.582,8,8V392z M464,368h-16v-88c0-13.255-10.745-24-24-24h-56v-80h72c13.255,0,24,10.745,24,24V368z"/>
			<path d="M344,368H72c-4.418,0-8,3.582-8,8s3.582,8,8,8h272c4.418,0,8-3.582,8-8S348.418,368,344,368z"/>
			<path d="M408,368h-32c-4.418,0-8,3.582-8,8s3.582,8,8,8h32c4.418,0,8-3.582,8-8S412.418,368,408,368z"/>
			<circle cx="240" cy="104" r="16"/>
			<circle cx="192" cy="168" r="16"/>
			<circle cx="288" cy="168" r="16"/>
			<circle cx="144" cy="104" r="16"/>
			<circle cx="336" cy="104" r="16"/>
		</g>
	</g>
</g>
<g>
</g>
<g>
</g>
<g>
</g>
<g>
</g>
<g>
</g>
<g>
</g>
<g>
</g>
<g>
</g>
<g>
</g>
<g>
</g>
<g>
</g>
<g>
</g>
<g>
</g>
<g>
</g>
<g>
</g>
</svg>
