<?xml version="1.0" encoding="iso-8859-1"?>
<!-- Generator: Adobe Illustrator 19.0.0, SVG Export Plug-In . SVG Version: 6.00 Build 0)  -->
<svg version="1.1" id="Capa_1" xmlns="http://www.w3.org/2000/svg" xmlns:xlink="http://www.w3.org/1999/xlink" x="0px" y="0px"
	 viewBox="0 0 480 480" style="enable-background:new 0 0 480 480;" xml:space="preserve">
<g>
	<g>
		<g>
			<path d="M472,0H8C3.582,0,0,3.582,0,8v168c0.026,22.08,17.92,39.974,40,40h400c22.08-0.026,39.974-17.92,40-40V8
				C480,3.582,476.418,0,472,0z M408,200H72v-24c0-4.418,3.582-8,8-8h320c4.418,0,8,3.582,8,8V200z M464,176
				c0,13.255-10.745,24-24,24h-16v-24c0-13.255-10.745-24-24-24H80c-13.255,0-24,10.745-24,24v24H40c-13.255,0-24-10.745-24-24V16
				h448V176z"/>
			<path d="M40,48h336c4.418,0,8-3.582,8-8s-3.582-8-8-8H40c-4.418,0-8,3.582-8,8S35.582,48,40,48z"/>
			<path d="M408,48h32c4.418,0,8-3.582,8-8s-3.582-8-8-8h-32c-4.418,0-8,3.582-8,8S403.582,48,408,48z"/>
			<rect x="176" y="120" width="32" height="16"/>
			<rect x="224" y="120" width="32" height="16"/>
			<rect x="272" y="120" width="32" height="16"/>
			<path d="M231.992,240c0-4.418-3.582-8-8-8s-8,3.582-8,8c0,4.832-1.864,7-5.752,11c-1.206,1.023-2.327,2.144-3.35,3.35
				c-10.369,12.219-8.869,30.529,3.35,40.898c3.896,4.024,5.76,6.176,5.76,11.008c0,4.832-1.864,7-5.752,11
				c-1.212,1.028-2.338,2.154-3.366,3.366c-10.357,12.217-8.85,30.516,3.366,40.874c3.888,4.024,5.752,6.16,5.752,11
				c0,4.84-1.864,7.024-5.76,11.024c-1.197,1.017-2.31,2.13-3.327,3.327c-10.388,12.225-8.898,30.557,3.327,40.945
				c3.896,4.032,5.76,6.184,5.76,11.032s-1.864,7.032-5.76,11.032C203.802,455.422,200.071,463.49,200,472c0,4.418,3.582,8,8,8
				c4.415-0.004,7.992-3.585,7.992-8c0-4.848,1.864-7.032,5.76-11.032c1.194-1.015,2.304-2.125,3.32-3.32
				c10.396-12.23,8.91-30.572-3.32-40.968c-3.896-4.024-5.76-6.192-5.76-11.032c0-4.84,1.864-7.016,5.76-11.016
				c1.2-1.019,2.315-2.134,3.334-3.334c10.38-12.221,8.887-30.542-3.334-40.922c-3.896-4.024-5.76-6.168-5.76-11
				c0-4.832,1.864-7,5.752-11c1.212-1.028,2.338-2.154,3.366-3.366c10.357-12.216,8.85-30.516-3.366-40.874
				c-3.888-4.024-5.752-6.176-5.752-11.008c0-4.832,1.864-7.008,5.76-11.008C228.184,256.559,231.914,248.502,231.992,240z"/>
			<path d="M279.992,240c0-4.418-3.582-8-8-8s-8,3.582-8,8c0,4.832-1.864,7-5.752,11c-1.206,1.023-2.327,2.144-3.35,3.35
				c-10.368,12.219-8.869,30.529,3.35,40.898c3.896,4.024,5.76,6.176,5.76,11.008c0,4.832-1.864,7-5.752,11
				c-1.212,1.028-2.338,2.154-3.366,3.366c-10.357,12.217-8.85,30.516,3.366,40.874c3.888,4.024,5.752,6.16,5.752,11
				c0,4.84-1.864,7.024-5.76,11.024c-1.197,1.017-2.31,2.13-3.327,3.327c-10.388,12.225-8.898,30.557,3.327,40.945
				c3.896,4.032,5.76,6.184,5.76,11.032s-1.864,7.032-5.76,11.032C251.802,455.422,248.071,463.49,248,472c0,4.418,3.582,8,8,8
				c4.415-0.004,7.992-3.585,7.992-8c0-4.848,1.864-7.032,5.76-11.032c1.194-1.015,2.304-2.125,3.32-3.32
				c10.396-12.23,8.91-30.572-3.32-40.968c-3.896-4.024-5.76-6.192-5.76-11.032c0-4.84,1.864-7.016,5.76-11.016
				c1.2-1.019,2.315-2.134,3.334-3.334c10.38-12.221,8.887-30.542-3.334-40.922c-3.896-4.024-5.76-6.168-5.76-11
				c0-4.832,1.864-7,5.752-11c1.212-1.028,2.338-2.154,3.366-3.366c10.357-12.216,8.85-30.516-3.366-40.874
				c-3.888-4.024-5.752-6.176-5.752-11.008c0-4.832,1.864-7.008,5.76-11.008C276.184,256.559,279.914,248.502,279.992,240z"/>
			<path d="M317.664,346.352c-3.928-4-5.664-5.912-5.664-10.4c0-4.488,1.736-6.416,5.656-10.328
				c1.532-1.237,2.928-2.633,4.165-4.165c9.658-11.958,7.794-29.481-4.165-39.139C313.736,278.4,312,276.512,312,272
				c0-4.512,1.736-6.4,5.656-10.416c6.466-5.342,10.25-13.261,10.344-21.648c0-4.418-3.582-8-8-8s-8,3.582-8,8
				c0,4.488-1.736,6.408-5.656,10.328c-1.535,1.239-2.933,2.637-4.172,4.172c-9.649,11.954-7.782,29.466,4.172,39.116
				c3.92,3.928,5.656,5.832,5.656,10.328c0,4.496-1.736,6.416-5.656,10.336c-1.528,1.235-2.922,2.629-4.157,4.157
				c-9.667,11.962-7.805,29.496,4.157,39.163c3.92,4,5.656,5.864,5.656,10.4c0,4.536-1.736,6.464-5.664,10.4
				C299.872,383.686,296.092,391.61,296,400c0,4.418,3.582,8,8,8c4.384,0.005,7.955-3.52,8.008-7.904
				c0-4.544,1.736-6.472,5.656-10.4c1.519-1.229,2.904-2.614,4.133-4.133C331.484,373.594,329.633,356.039,317.664,346.352z"/>
			<path d="M173.664,346.352c-3.928-4-5.664-5.912-5.664-10.4c0-4.488,1.736-6.416,5.656-10.328
				c1.532-1.237,2.928-2.633,4.165-4.165c9.658-11.958,7.794-29.481-4.165-39.139C169.736,278.4,168,276.512,168,272
				c0-4.512,1.736-6.4,5.656-10.416c6.466-5.342,10.25-13.261,10.344-21.648c0-4.418-3.582-8-8-8s-8,3.582-8,8
				c0,4.488-1.736,6.408-5.656,10.328c-1.535,1.239-2.933,2.637-4.172,4.172c-9.649,11.954-7.781,29.466,4.172,39.116
				c3.92,3.928,5.656,5.832,5.656,10.328c0,4.496-1.736,6.416-5.656,10.336c-1.528,1.235-2.922,2.629-4.157,4.157
				c-9.667,11.962-7.805,29.496,4.157,39.163c3.92,4,5.656,5.864,5.656,10.4c0,4.536-1.736,6.464-5.664,10.4
				C155.872,383.686,152.092,391.61,152,400c0,4.418,3.582,8,8,8c4.384,0.005,7.955-3.52,8.008-7.904
				c0-4.544,1.736-6.472,5.656-10.4c1.519-1.229,2.904-2.614,4.133-4.133C187.484,373.594,185.633,356.039,173.664,346.352z"/>
			<path d="M365.656,338.352C361.736,334.4,360,332.52,360,328c0-4.52,1.736-6.4,5.656-10.336
				c6.466-5.342,10.25-13.261,10.344-21.648c0-4.418-3.582-8-8-8s-8,3.582-8,8c0,4.488-1.736,6.408-5.656,10.328
				c-1.532,1.237-2.928,2.633-4.165,4.165c-9.658,11.958-7.794,29.481,4.165,39.139C358.264,353.6,360,355.512,360,360
				c0,4.488-1.736,6.4-5.656,10.336C347.877,375.684,344.093,383.609,344,392c0,4.418,3.582,8,8,8s8-3.582,8-8
				c0-4.496,1.736-6.4,5.656-10.32c1.527-1.234,2.919-2.626,4.153-4.153C379.48,365.562,377.621,348.023,365.656,338.352z"/>
			<path d="M125.656,338.352C121.736,334.4,120,332.52,120,328c0-4.52,1.736-6.4,5.656-10.336
				c6.466-5.342,10.25-13.261,10.344-21.648c0-4.418-3.582-8-8-8s-8,3.582-8,8c0,4.488-1.736,6.408-5.656,10.328
				c-1.532,1.237-2.928,2.633-4.165,4.165c-9.658,11.958-7.794,29.481,4.165,39.139C118.264,353.6,120,355.512,120,360
				c0,4.488-1.736,6.4-5.656,10.336C107.877,375.684,104.093,383.609,104,392c0,4.418,3.582,8,8,8s8-3.582,8-8
				c0-4.496,1.736-6.4,5.656-10.32c1.527-1.234,2.919-2.626,4.153-4.153C139.48,365.562,137.621,348.023,125.656,338.352z"/>
			<path d="M112,280c4.418,0,8-3.582,8-8c0-4.496,1.736-6.4,5.656-10.344c6.467-5.345,10.251-13.267,10.344-21.656
				c0-4.418-3.582-8-8-8s-8,3.582-8,8c0,4.496-1.736,6.424-5.656,10.344C107.877,255.689,104.093,263.611,104,272
				C104,276.418,107.582,280,112,280z"/>
			<path d="M176,408c-4.418,0-8,3.582-8,8c0,4.496-1.736,6.424-5.656,10.344C155.877,431.689,152.093,439.611,152,448
				c0,4.418,3.582,8,8,8s8-3.582,8-8c0-4.496,1.736-6.4,5.656-10.344c6.467-5.345,10.251-13.267,10.344-21.656
				C184,411.582,180.418,408,176,408z"/>
			<path d="M320,408c-4.418,0-8,3.582-8,8c0,4.496-1.736,6.424-5.656,10.344C299.877,431.689,296.093,439.611,296,448
				c0,4.418,3.582,8,8,8s8-3.582,8-8c0-4.496,1.736-6.4,5.656-10.344c6.467-5.345,10.251-13.267,10.344-21.656
				C328,411.582,324.418,408,320,408z"/>
			<path d="M352,280c4.418,0,8-3.582,8-8c0-4.496,1.736-6.4,5.656-10.344c6.467-5.345,10.251-13.267,10.344-21.656
				c0-4.418-3.582-8-8-8s-8,3.582-8,8c0,4.496-1.736,6.424-5.656,10.344C347.877,255.689,344.093,263.611,344,272
				C344,276.418,347.582,280,352,280z"/>
		</g>
	</g>
</g>
<g>
</g>
<g>
</g>
<g>
</g>
<g>
</g>
<g>
</g>
<g>
</g>
<g>
</g>
<g>
</g>
<g>
</g>
<g>
</g>
<g>
</g>
<g>
</g>
<g>
</g>
<g>
</g>
<g>
</g>
</svg>
